<svg width="624" height="564" viewBox="0 0 624 564" fill="none" xmlns="http://www.w3.org/2000/svg">
<path d="M187.029 95.1479C178.219 99.336 169.533 104.127 160.97 109.52C101.63 147.148 57.6857 213.388 44.1356 285.21C38.5732 314.47 37.9871 345.348 47.131 372.854C60.088 411.632 91.0918 440.44 125.759 457.701C232.274 510.728 383.411 508.801 485.739 434.003C531.06 400.875 565.71 343.819 560.269 286.554C557.525 255.353 543.191 227.026 525.451 202.911C450.193 100.175 306.785 39.2558 187.029 95.1479Z" fill="#E4D716"/>
<path d="M204.43 75.893C195.62 80.0811 186.933 84.8717 178.37 90.2648C118.959 128.159 75.0861 194.134 61.536 265.955C55.9736 295.215 55.3875 326.093 64.5314 353.599C77.4884 392.377 108.492 421.185 143.159 438.446C249.675 491.474 400.811 489.546 503.139 414.748C548.461 381.621 583.11 324.564 577.669 267.299C574.925 236.098 560.592 207.771 542.851 183.656C467.593 80.9204 324.185 20.0009 204.43 75.893Z" fill="#003B21"/>
<path fill-rule="evenodd" clip-rule="evenodd" d="M256.353 56.9532C388.927 44.0647 510.886 148.251 555.128 268.73L555.131 268.737L555.133 268.744C565.358 297.048 571.272 328.176 565.165 358.579C553.98 414.465 503.78 456.269 450.172 472.448L450.163 472.451C329.304 508.46 182.14 460.614 94.0369 376.531L94.0354 376.529C65.1432 348.914 42.8638 311.691 41.2981 270.773C40.084 241.612 49.5761 212.854 63.2815 187.47C96.7866 124.757 158.333 77.6448 226.817 61.7259L226.822 61.7248C236.636 59.4627 246.593 57.8049 256.353 56.9532ZM549.962 270.617C506.299 151.728 386.232 49.8454 256.872 62.4291L256.859 62.4305L256.845 62.4316C247.368 63.2579 237.662 64.8711 228.059 67.0844C161.124 82.6444 100.889 128.747 68.1302 190.068L68.1244 190.078C54.7023 214.936 45.6332 242.701 46.794 270.549L46.7944 270.559C48.2876 309.612 69.6074 345.572 97.836 372.553C184.777 455.526 329.951 502.526 448.588 467.181C500.923 451.384 549.106 410.787 559.771 357.5L559.772 357.498C565.605 328.462 560.006 298.424 549.962 270.617Z" fill="#52C20A"/>
<path opacity="0.21" d="M521.659 315.641C563.164 314.073 595.539 279.156 593.972 237.652C592.404 196.147 557.487 163.772 515.983 165.339C474.478 166.907 442.103 201.824 443.67 243.329C445.238 284.833 480.155 317.208 521.659 315.641Z" fill="#52C20A"/>
<path d="M542.347 303.239C583.626 298.662 613.379 261.487 608.801 220.208C604.223 178.929 567.049 149.176 525.77 153.754C484.491 158.332 454.738 195.506 459.316 236.785C463.894 278.064 501.068 307.817 542.347 303.239Z" fill="#A4FA6D"/>
<path d="M501.352 366.152L504.393 355.863C506.173 349.221 500.21 342.783 493.441 344.671L483.056 347.298C476.357 348.92 473.814 357.35 478.733 362.369L486.076 370.031C490.995 375.051 499.306 372.722 501.352 366.152Z" fill="#FF2E3B"/>
<path d="M149.15 192.801L151.999 182.806C153.909 176.316 147.891 170.093 141.301 171.742L131.215 174.334C124.625 175.983 122.245 184.226 127.085 189.109L134.28 196.673C139.003 201.354 147.4 199.334 149.15 192.801Z" fill="#52C20A"/>
<path d="M476.01 373.599L461.822 356.415C452.535 345.385 434.674 348.286 429.644 361.744L421.753 382.693C416.723 396.151 428.364 410.09 442.681 407.662L464.494 403.826C479.006 401.735 485.226 384.895 476.01 373.599Z" fill="#EEE565"/>
<path d="M179.292 428.692L196.259 422.372C207.346 418.237 210.072 403.504 201.117 395.88L187.384 384.051C178.429 376.427 164.645 381.51 162.512 393.268L159.088 411.367C157.146 423.176 168.205 432.826 179.292 428.692Z" fill="#FF792E"/>
<path d="M207.293 165.515L198.887 165.678L199.39 191.647C199.561 200.498 206.218 206.384 216.517 206.184C226.788 205.985 233.213 199.847 233.041 190.995L232.538 165.026L224.132 165.189L224.619 190.323C224.719 195.472 221.75 198.899 216.378 199.003C210.978 199.108 207.879 195.798 207.779 190.649L207.293 165.515Z" fill="#003B21"/>
<path d="M239.246 164.896L240.024 205.061L248.43 204.898L248.185 192.233L255.7 192.088C264.162 191.924 269.928 186.299 269.769 178.06C269.609 169.793 263.824 164.42 255.585 164.58L239.246 164.896ZM247.781 171.386L253.487 171.275C258.303 171.182 261.136 173.689 261.224 178.254C261.313 182.846 258.551 185.461 253.736 185.555L248.058 185.665L247.781 171.386Z" fill="#003B21"/>
<path d="M304.572 203.811L303.928 170.577L315.563 170.352L315.429 163.421L283.781 164.034L283.916 170.964L295.522 170.74L296.166 203.974L304.572 203.811Z" fill="#003B21"/>
<path d="M335.957 162.327C324.044 162.558 316.739 170.691 316.987 183.495C317.234 196.27 324.848 204.087 336.761 203.856C348.647 203.626 355.98 195.52 355.732 182.744C355.484 169.941 347.842 162.097 335.957 162.327ZM336.093 169.341C342.662 169.214 346.968 174.477 347.132 182.911C347.294 191.317 343.194 196.715 336.625 196.842C330.029 196.969 325.723 191.734 325.56 183.329C325.397 174.895 329.524 169.469 336.093 169.341Z" fill="#003B21"/>
<path d="M172.226 353.231C196.929 352.753 213.996 340.067 213.649 322.114C213.384 308.47 203.208 298.61 189.007 296.083L188.999 295.652C201.076 292.401 209.09 283.338 208.875 272.208C208.561 255.979 192.607 244.578 170.131 245.013C147.654 245.449 132.084 257.531 132.396 273.617C132.614 284.891 141.045 293.636 153.309 296.344L153.318 296.774C139.224 299.777 129.365 310.025 129.629 323.669C129.977 341.622 147.452 353.711 172.226 353.231ZM170.992 289.464C161.154 289.654 154.074 283.901 153.91 275.427C153.744 266.882 160.596 260.859 170.434 260.668C180.2 260.479 187.352 266.231 187.517 274.777C187.681 283.25 180.758 289.275 170.992 289.464ZM171.92 337.433C160.503 337.654 152.401 331.058 152.219 321.651C152.04 312.388 159.88 305.483 171.298 305.262C182.715 305.041 190.744 311.566 190.925 320.902C191.107 330.309 183.338 337.212 171.92 337.433Z" fill="#003B21"/>
<path d="M268.883 351.36C292.006 350.912 308.513 335.291 308.097 313.82C307.721 294.359 293.728 280.335 273.693 280.723C259.69 280.994 249.629 288.229 245.794 297.929L245.363 297.937C244.852 275.247 252.038 260.525 267.118 260.233C275.664 260.067 281.923 264.256 284.508 271.605L305.907 271.191C302.704 254.156 286.965 242.679 266.858 243.069C239.929 243.59 223.957 264.588 224.621 298.914C225.314 334.675 244.108 351.839 268.883 351.36ZM268.262 334.131C257.634 334.337 249.143 326.168 248.936 315.468C248.731 304.912 256.769 297.07 267.756 296.857C278.599 296.647 286.792 304.247 287.003 315.162C287.133 325.576 278.89 333.925 268.262 334.131Z" fill="#003B21"/>
<path d="M341.382 296.509C356.318 296.22 365.882 285.546 365.559 268.887C365.234 252.083 355.2 242.148 340.335 242.436C325.398 242.725 315.756 253.041 316.083 269.916C316.406 286.576 326.374 296.8 341.382 296.509ZM351.348 347.464L419.572 242.482L404.061 242.783L335.765 347.766L351.348 347.464ZM341.147 284.373C335.402 284.484 331.428 279.605 331.235 269.623C331.039 259.498 334.826 254.755 340.571 254.644C346.316 254.533 350.212 259.127 350.408 269.252C350.602 279.233 346.82 284.263 341.147 284.373ZM415.073 347.739C430.01 347.45 439.573 336.776 439.25 320.116C438.923 303.241 428.889 293.306 414.025 293.594C399.088 293.883 389.448 304.271 389.773 321.074C390.097 337.806 400.065 348.029 415.073 347.739ZM414.837 335.531C409.092 335.642 405.12 330.834 404.925 320.781C404.729 310.656 408.516 305.913 414.261 305.802C420.006 305.69 423.903 310.356 424.098 320.41C424.293 330.463 420.51 335.421 414.837 335.531Z" fill="#003B21"/>
<path d="M198.801 154.698L190.395 154.861L190.898 180.83C191.07 189.681 197.727 195.567 208.026 195.367C218.297 195.169 224.721 189.03 224.55 180.178L224.047 154.209L215.641 154.372L216.128 179.506C216.228 184.655 213.259 188.082 207.887 188.186C202.487 188.291 199.388 184.982 199.288 179.832L198.801 154.698Z" fill="#003B21"/>
<path d="M230.755 154.079L231.533 194.244L239.939 194.081L239.694 181.417L247.209 181.271C255.671 181.107 261.437 175.482 261.277 167.243C261.117 158.977 255.333 153.603 247.094 153.763L230.755 154.079ZM239.29 160.569L244.996 160.458C249.811 160.365 252.644 162.872 252.733 167.437C252.822 172.029 250.06 174.645 245.245 174.738L239.566 174.848L239.29 160.569Z" fill="#003B21"/>
<path d="M296.081 192.994L295.437 159.76L307.072 159.535L306.938 152.604L275.29 153.217L275.424 160.147L287.031 159.923L287.675 193.157L296.081 192.994Z" fill="#003B21"/>
<path d="M327.466 151.51C315.553 151.741 308.248 159.874 308.496 172.678C308.743 185.454 316.357 193.27 328.27 193.039C340.155 192.809 347.488 184.703 347.241 171.927C346.993 159.124 339.351 151.28 327.466 151.51ZM327.602 158.525C334.171 158.397 338.477 163.66 338.64 172.094C338.803 180.5 334.703 185.898 328.134 186.025C321.537 186.153 317.232 180.918 317.069 172.512C316.905 164.078 321.033 158.652 327.602 158.525Z" fill="#003B21"/>
<path d="M163.735 342.414C188.438 341.936 205.505 329.25 205.157 311.297C204.893 297.653 194.717 287.793 180.516 285.266L180.508 284.836C192.585 281.585 200.599 272.522 200.384 261.391C200.069 245.162 184.116 233.761 161.64 234.197C139.163 234.632 123.593 246.715 123.904 262.8C124.123 274.074 132.553 282.819 144.818 285.527L144.826 285.957C130.733 288.96 120.874 299.208 121.138 312.852C121.486 330.805 138.961 342.894 163.735 342.414ZM162.5 278.647C152.662 278.838 145.583 273.084 145.419 264.61C145.253 256.065 152.105 250.042 161.943 249.851C171.709 249.662 178.86 255.414 179.026 263.96C179.19 272.433 172.267 278.458 162.5 278.647ZM163.429 326.616C152.011 326.837 143.91 320.242 143.728 310.834C143.548 301.571 151.388 294.666 162.806 294.445C174.224 294.224 182.252 300.75 182.433 310.085C182.615 319.492 174.847 326.395 163.429 326.616Z" fill="#003B21"/>
<path d="M260.392 340.543C283.514 340.095 300.022 324.474 299.606 303.003C299.229 283.542 285.237 269.518 265.202 269.906C251.199 270.177 241.138 277.412 237.303 287.112L236.872 287.12C236.361 264.43 243.547 249.708 258.627 249.416C267.172 249.25 273.431 253.439 276.016 260.788L297.416 260.374C294.212 243.339 278.473 231.862 258.366 232.252C231.438 232.773 215.465 253.772 216.13 288.097C216.823 323.858 235.617 341.023 260.392 340.543ZM259.771 323.314C249.143 323.52 240.651 315.351 240.444 304.651C240.24 294.095 248.277 286.253 259.264 286.04C270.108 285.83 278.301 293.43 278.512 304.345C278.642 314.759 270.398 323.108 259.771 323.314Z" fill="#003B21"/>
<path d="M332.891 285.692C347.827 285.403 357.39 274.73 357.068 258.07C356.742 241.266 346.708 231.331 331.844 231.619C316.907 231.908 307.265 242.224 307.592 259.1C307.914 275.759 317.882 285.983 332.891 285.692ZM342.857 336.647L411.081 231.665L395.57 231.966L327.274 336.949L342.857 336.647ZM332.656 273.556C326.911 273.668 322.937 268.788 322.744 258.806C322.548 248.681 326.335 243.938 332.08 243.827C337.825 243.716 341.721 248.31 341.917 258.435C342.11 268.416 338.329 273.446 332.656 273.556ZM406.582 336.922C421.518 336.633 431.081 325.959 430.759 309.299C430.432 292.424 420.398 282.489 405.533 282.777C390.597 283.066 380.956 293.454 381.282 310.257C381.606 326.989 391.573 337.212 406.582 336.922ZM406.345 324.714C400.6 324.825 396.628 320.017 396.434 309.964C396.237 299.839 400.025 295.096 405.77 294.985C411.514 294.873 415.412 299.539 415.607 309.593C415.802 319.646 412.018 324.604 406.345 324.714Z" fill="#003B21"/>
<path d="M498.827 207.449C486.601 207.686 479.105 216.032 479.359 229.171C479.613 242.282 487.427 250.304 499.652 250.067C511.849 249.831 519.375 241.512 519.121 228.401C518.866 215.262 511.024 207.213 498.827 207.449ZM498.966 214.647C505.707 214.516 510.127 219.917 510.294 228.572C510.461 237.199 506.254 242.738 499.513 242.869C492.743 243 488.324 237.627 488.157 229.001C487.989 220.346 492.225 214.778 498.966 214.647Z" fill="#001D10"/>
<path d="M533.716 248.721L533.402 232.497L550.169 232.172L550.037 225.345L533.27 225.67L533.056 214.616L551.423 214.26L551.285 207.147L524.292 207.67L525.09 248.888L533.716 248.721Z" fill="#001D10"/>
<path d="M565.822 248.1L565.508 231.875L582.276 231.551L582.143 224.724L565.376 225.048L565.162 213.994L583.529 213.638L583.391 206.526L556.398 207.048L557.196 248.267L565.822 248.1Z" fill="#001D10"/>
</svg>
