<svg width="200" height="36" viewBox="0 0 200 36" fill="none" xmlns="http://www.w3.org/2000/svg">
<g clip-path="url(#clip0_1153_20)">
<path d="M65.9189 7.67897H69.0094C69.3601 7.67797 69.7091 7.72751 70.0462 7.82613C70.3729 7.92154 70.6835 8.06698 70.9675 8.25749C71.2489 8.44662 71.5039 8.67367 71.7257 8.93248C71.9466 9.18853 72.125 9.47959 72.2541 9.79421C72.9963 11.6347 73.7449 13.459 74.4998 15.2671C75.2546 17.0752 76.0095 18.8994 76.7644 20.74C76.8938 21.0399 76.9841 21.3559 77.033 21.6799C77.0714 21.9674 77.097 22.2219 77.1096 22.4432C77.143 22.0103 77.2268 21.583 77.3593 21.1704C77.5183 20.6645 77.7039 20.1677 77.9156 19.6824L82.004 9.77392C82.1187 9.47971 82.2875 9.21061 82.5015 8.9812C82.7354 8.72381 82.9997 8.49707 83.2885 8.30622C83.5846 8.10943 83.9038 7.95155 84.2387 7.83629C84.5628 7.7212 84.9034 7.66152 85.2466 7.65967H88.3371L86.1481 12.9661L88.5858 18.8795C88.8419 19.4932 89.0913 20.0971 89.3341 20.6913C89.5619 21.2217 89.6982 21.7883 89.737 22.366C89.7496 22.2618 89.7656 22.141 89.7848 22.0036C89.804 21.8663 89.8392 21.6934 89.8902 21.485C89.9546 21.2331 90.0317 20.9848 90.1211 20.741C90.2232 20.4541 90.3639 20.1016 90.543 19.6834L94.6364 9.77491C94.7502 9.48212 94.9162 9.21338 95.1259 8.98222C95.3547 8.72337 95.616 8.49642 95.903 8.30724C96.1991 8.11048 96.5184 7.95257 96.8532 7.83728C97.1774 7.72219 97.5179 7.66254 97.8611 7.66069H100.952L92.4673 28.2409H87.0157L84.0785 20.6436C83.9763 20.3695 83.8868 20.089 83.8099 19.8021C83.733 19.515 83.6942 19.2187 83.6944 18.9211C83.6922 18.6349 83.7376 18.3504 83.8288 18.0797C83.5853 18.7847 83.1343 19.9791 82.4756 21.6626C81.8169 23.3462 80.937 25.5392 79.8359 28.2418H74.3843L65.9189 7.67897Z" fill="#121212"/>
<path d="M102.295 7.67574H106.4C106.467 7.67574 106.563 7.85505 106.689 8.21368C106.849 8.71458 106.965 9.22927 107.034 9.75143C107.165 9.3495 107.413 8.99766 107.745 8.7425C108.124 8.43609 108.544 8.18564 108.992 7.9985C109.466 7.7963 109.958 7.64228 110.461 7.5387C110.906 7.44121 111.359 7.38886 111.814 7.3824H111.891C113.259 7.37115 114.614 7.65803 115.865 8.22384C117.067 8.76688 118.156 9.54162 119.07 10.5056C120.957 12.5122 122.008 15.1867 122.003 17.9672C121.997 20.7477 120.936 23.4179 119.042 25.4169C118.117 26.3768 117.018 27.1447 115.807 27.6784C114.548 28.2372 113.187 28.5207 111.814 28.5107C111.018 28.5081 110.227 28.3758 109.472 28.1189C108.682 27.8523 107.955 27.4186 107.341 26.8461V34.8747H102.292L102.295 7.67574ZM111.797 12.4929C110.919 12.4886 110.053 12.7003 109.273 13.1101C108.508 13.5023 107.846 14.0763 107.344 14.7838V21.089C107.856 21.804 108.526 22.3858 109.3 22.7874C110.073 23.1889 110.929 23.3988 111.797 23.4001C112.504 23.4074 113.204 23.2603 113.851 22.9687C114.465 22.691 115.02 22.2919 115.483 21.7944C115.948 21.2915 116.316 20.7037 116.567 20.0618C117.092 18.6993 117.092 17.1847 116.567 15.8221C116.319 15.1786 115.95 14.5903 115.483 14.0895C115.018 13.5971 114.464 13.2013 113.851 12.9243C113.204 12.6339 112.504 12.4879 111.797 12.496V12.4929Z" fill="#121212"/>
<path d="M129.092 7.67566C129.161 7.8265 129.238 7.97353 129.322 8.11616C129.458 8.37804 129.524 8.67167 129.514 8.96777V10.1421C129.634 9.79432 129.832 9.47939 130.09 9.22152C130.367 8.94243 130.681 8.70336 131.021 8.51101C131.386 8.30319 131.768 8.1296 132.164 7.99236C132.557 7.85354 132.958 7.73596 133.364 7.64013C133.727 7.55343 134.096 7.48804 134.467 7.44425C134.76 7.40836 135.055 7.38869 135.35 7.38536C136.714 7.37358 138.065 7.65727 139.314 8.21767C140.507 8.75222 141.584 9.52452 142.481 10.4892C143.38 11.4669 144.089 12.6097 144.57 13.857C145.581 16.4981 145.581 19.4304 144.57 22.0714C144.087 23.3153 143.378 24.4548 142.481 25.4301C141.584 26.3949 140.507 27.1672 139.314 27.7016C137.633 28.4492 135.781 28.7003 133.968 28.4263C133.462 28.3478 132.966 28.2116 132.49 28.0204C131.956 27.8059 131.45 27.5264 130.983 27.188C130.435 26.7891 129.941 26.3181 129.514 25.7873V35.1477H126.385V7.67566H129.092ZM135.35 25.3976C136.308 25.4092 137.258 25.2123 138.136 24.82C138.961 24.4492 139.702 23.9092 140.314 23.2336C140.932 22.5442 141.414 21.7399 141.734 20.8646C142.412 18.9876 142.412 16.9256 141.734 15.0486C141.414 14.1733 140.932 13.3691 140.314 12.6796C139.702 12.0042 138.96 11.4642 138.136 11.0932C137.258 10.701 136.308 10.5041 135.35 10.5156C134.263 10.5155 133.189 10.7421 132.191 11.1815C131.188 11.6161 130.278 12.2483 129.514 13.042V22.3627C129.857 22.8426 130.259 23.2767 130.708 23.6548C131.146 24.0272 131.626 24.3457 132.138 24.6039C132.643 24.8585 133.174 25.0556 133.722 25.1915C134.254 25.3273 134.801 25.3976 135.35 25.4006V25.3976Z" fill="#121212"/>
<path d="M147.999 17.9598C147.991 16.5496 148.269 15.1529 148.815 13.8572C149.871 11.3176 151.853 9.29578 154.343 8.21785C155.618 7.66915 156.988 7.38647 158.373 7.38647C159.757 7.38647 161.127 7.66915 162.402 8.21785C164.892 9.2956 166.874 11.3175 167.93 13.8572C168.469 15.1582 168.746 16.5559 168.746 17.968C168.746 19.38 168.469 20.7777 167.93 22.0787C166.874 24.6185 164.892 26.6405 162.402 27.7181C161.127 28.2669 159.757 28.5496 158.373 28.5496C156.988 28.5496 155.618 28.2669 154.343 27.7181C151.853 26.6403 149.871 24.6184 148.815 22.0787C148.268 20.7776 147.99 19.3754 147.999 17.9598ZM151.07 17.9598C151.064 18.9593 151.26 19.9493 151.646 20.8678C152.015 21.7521 152.546 22.5562 153.211 23.2368C153.875 23.9129 154.661 24.4516 155.525 24.8233C156.427 25.2046 157.394 25.4009 158.371 25.4009C159.347 25.4009 160.314 25.2046 161.216 24.8233C162.773 24.1582 164.056 22.9628 164.846 21.4409C165.635 19.919 165.883 18.1648 165.547 16.4774C165.211 14.7899 164.311 13.2737 163.002 12.1872C161.692 11.1006 160.054 10.511 158.366 10.5189C157.39 10.5116 156.423 10.7082 155.525 11.0964C154.661 11.4683 153.875 12.007 153.211 12.6829C152.547 13.3635 152.015 14.1676 151.646 15.0519C151.26 15.9704 151.064 16.9604 151.07 17.9598Z" fill="#121212"/>
<path d="M171.533 17.9598C171.526 16.5496 171.803 15.1529 172.349 13.8572C173.406 11.3176 175.388 9.29578 177.878 8.21785C179.153 7.66915 180.523 7.38647 181.907 7.38647C183.291 7.38647 184.662 7.66915 185.937 8.21785C188.427 9.2956 190.409 11.3175 191.465 13.8572C192.003 15.1582 192.28 16.556 192.28 17.968C192.28 19.38 192.003 20.7777 191.465 22.0787C190.409 24.6185 188.427 26.6405 185.937 27.7181C184.662 28.2669 183.291 28.5496 181.907 28.5496C180.523 28.5496 179.153 28.2669 177.878 27.7181C175.388 26.6403 173.406 24.6184 172.349 22.0787C171.803 20.7776 171.525 19.3754 171.533 17.9598ZM174.605 17.9598C174.599 18.9593 174.795 19.9493 175.181 20.8678C175.55 21.752 176.081 22.5561 176.745 23.2368C177.409 23.9128 178.194 24.4515 179.059 24.8233C179.957 25.2116 180.924 25.4082 181.899 25.4008C183.099 25.4005 184.28 25.0986 185.338 24.5217C186.396 23.9448 187.298 23.1108 187.965 22.0934C188.632 21.076 189.042 19.9067 189.16 18.6889C189.278 17.4711 189.1 16.2423 188.642 15.1114C188.184 13.9805 187.459 12.9822 186.533 12.205C185.606 11.4278 184.506 10.8956 183.33 10.6555C182.153 10.4154 180.937 10.4747 179.789 10.8283C178.64 11.182 177.595 11.8189 176.745 12.6829C176.081 13.3637 175.55 14.1677 175.181 15.0519C174.795 15.9704 174.599 16.9604 174.605 17.9598Z" fill="#121212"/>
<path d="M200 0.178955V28.2397H196.871V0.178955H200Z" fill="#121212"/>
<path d="M26.8555 15.2363L16.2887 4.45702C14.4992 2.63166 12.0723 1.6062 9.54165 1.6062C7.01104 1.6062 4.58407 2.63166 2.79462 4.45702C1.00525 6.28246 0 8.75824 0 11.3397C0 13.9213 1.00525 16.397 2.79462 18.2225L13.3614 29.0018C15.1509 30.8271 17.5778 31.8526 20.1084 31.8526C22.6391 31.8526 25.066 30.8271 26.8555 29.0018C28.6448 27.1763 29.6501 24.7006 29.6501 22.1191C29.6501 19.5375 28.6448 17.0618 26.8555 15.2363Z" fill="#5CC9F6"/>
<path d="M57.6607 11.3733C55.8713 9.54795 53.4443 8.52246 50.9137 8.52246C48.3831 8.52246 45.9561 9.54795 44.1667 11.3733C43.2805 12.2772 42.5776 13.3503 42.098 14.5313C41.6184 15.7123 41.3716 16.9782 41.3716 18.2565C41.3716 19.5349 41.6184 20.8007 42.098 21.9818C42.5776 23.1628 43.2805 24.2359 44.1667 25.1398C45.9561 26.9651 48.3831 27.9906 50.9137 27.9906C53.4443 27.9906 55.8713 26.9651 57.6607 25.1398C58.5469 24.2359 59.2498 23.1628 59.7294 21.9818C60.209 20.8007 60.4559 19.5349 60.4559 18.2565C60.4559 16.9782 60.209 15.7123 59.7294 14.5313C59.2498 13.3503 58.5469 12.2772 57.6607 11.3733Z" fill="#FA8807"/>
<path d="M17.2621 11.3448L13.317 15.3693L13.3 15.351C11.758 16.8837 9.75327 17.8395 7.61148 18.063C5.46969 18.2865 3.31674 17.7647 1.50244 16.5822C1.87436 17.1749 2.30804 17.7249 2.79592 18.2225L7.05449 22.5667L7.09727 22.5504L13.4125 28.9927L30.7124 11.3448C29.8293 10.4437 28.7809 9.72887 27.627 9.24117C26.4731 8.75347 25.2363 8.50244 23.9872 8.50244C22.7382 8.50244 21.5014 8.75347 20.3475 9.24117C19.1936 9.72887 18.1451 10.4437 17.2621 11.3448Z" fill="#00AEEB"/>
<path d="M50.8723 4.54334L50.8634 4.5342C49.9916 3.61533 48.9482 2.8841 47.7946 2.38371C46.6411 1.88331 45.4009 1.6239 44.1474 1.62088C42.8939 1.61785 41.6526 1.87123 40.4967 2.36605C39.3409 2.86087 38.294 3.58709 37.4181 4.50174L20.1271 22.1404C18.444 23.8561 16.1933 24.8685 13.8163 24.9789C11.4394 25.0893 9.10778 24.2898 7.27881 22.7373L13.4119 28.9937L13.4189 28.9876C15.2061 30.8107 17.63 31.8349 20.1575 31.8349C22.6849 31.8349 25.1088 30.8107 26.896 28.9876L43.7362 11.8087L43.7641 11.8169C43.8944 11.6666 44.0278 11.5184 44.1691 11.3743C45.3451 10.1733 46.8088 9.30709 48.4147 8.86193C50.0206 8.41677 51.7128 8.40811 53.323 8.83681C52.8859 7.21263 52.0413 5.73278 50.8723 4.54334Z" fill="#0080CA"/>
<path d="M53.3173 8.83772C51.7071 8.40902 50.015 8.41768 48.4091 8.86284C46.8032 9.308 45.3395 10.1742 44.1634 11.3752C44.0221 11.5194 43.8888 11.6675 43.7584 11.8178L43.7316 11.8097L26.8914 28.9885C26.8605 29.02 26.8287 29.0484 26.7988 29.0789L26.8098 29.0911C28.5992 30.9164 31.0262 31.9419 33.5568 31.9419C36.0874 31.9419 38.5144 30.9164 40.3039 29.0911L50.8706 18.3117C52.0642 17.0949 52.9196 15.5766 53.3494 13.9121C53.7793 12.2476 53.7682 10.4965 53.3173 8.83772Z" fill="#EE5913"/>
<path d="M24.8973 7.6514C25.737 7.6514 26.4176 6.95703 26.4176 6.10048C26.4176 5.24393 25.737 4.54956 24.8973 4.54956C24.0576 4.54956 23.377 5.24393 23.377 6.10048C23.377 6.95703 24.0576 7.6514 24.8973 7.6514Z" fill="#5CC9F6"/>
<path d="M21.5415 4.63564C22.08 4.63564 22.5166 4.1903 22.5166 3.64094C22.5166 3.09158 22.08 2.64624 21.5415 2.64624C21.003 2.64624 20.5664 3.09158 20.5664 3.64094C20.5664 4.1903 21.003 4.63564 21.5415 4.63564Z" fill="#5CC9F6"/>
<path d="M23.6948 1.98965C24.2333 1.98965 24.6699 1.5443 24.6699 0.994945C24.6699 0.445587 24.2333 0.000244141 23.6948 0.000244141C23.1563 0.000244141 22.7197 0.445587 22.7197 0.994945C22.7197 1.5443 23.1563 1.98965 23.6948 1.98965Z" fill="#5CC9F6"/>
</g>
<defs>
<clipPath id="clip0_1153_20">
<rect width="200" height="35.1515" fill="white"/>
</clipPath>
</defs>
</svg>
