<svg width="100" height="100" viewBox="0 0 100 100" fill="none" xmlns="http://www.w3.org/2000/svg">
<g clip-path="url(#clip0_329_1344)">
<path d="M1.94272 34.9129C-0.64343 34.0508 -0.668201 32.6587 1.99226 31.7718L96.5551 0.25254C99.1759 -0.619418 100.677 0.847057 99.9439 3.41339L72.9231 97.9713C72.1799 100.592 70.6689 100.681 69.5591 98.1942L51.7533 58.1238L81.4792 18.4893L41.8447 48.2152L1.94272 34.9129V34.9129Z" fill="#117F23"/>
<path d="M12.1348 93.7788L12.8853 94.1541C16.0127 96.0304 19.5152 96.9061 23.0178 96.9061C34.0258 96.9061 43.0324 87.8995 43.0324 76.8915C43.0324 71.6378 40.9057 66.509 37.1531 62.7562C33.4003 59.0034 28.3966 56.877 23.0178 56.877C12.0098 56.877 3.00307 65.8835 3.12824 77.0167C3.12824 80.7693 4.25406 84.3971 6.13036 87.5242L6.63069 88.2749L4.62939 95.6553L12.1348 93.7788Z" fill="#00E676"/>
<path d="M39.2786 60.7549C35.0255 56.3768 29.1463 54 23.1419 54C10.3827 54 0.125171 64.3825 0.250162 77.0167C0.250162 81.0196 1.37598 84.8976 3.25246 88.4L0 100.284L12.1338 97.1564C15.5113 99.0329 19.2639 99.9085 23.0169 99.9085C35.651 99.9085 45.9085 89.5258 45.9085 76.8919C45.9085 70.7623 43.5317 65.008 39.2788 60.7549H39.2786ZM23.1419 96.0308C19.7644 96.0308 16.3869 95.1553 13.5098 93.404L12.7593 93.0286L5.5041 94.9049L7.3804 87.7749L6.88008 87.0242C1.37598 78.1429 4.00295 66.384 13.0095 60.8799C22.016 55.376 33.6495 58.0029 39.1536 67.0095C44.6576 76.016 42.0306 87.6495 33.0242 93.1536C30.1469 95.0299 26.6445 96.0306 23.1419 96.0306V96.0308ZM34.1499 82.1458L32.7739 81.5203C32.7739 81.5203 30.7726 80.6447 29.5216 80.0192C29.3964 80.0192 29.2714 79.894 29.1463 79.894C28.7709 79.894 28.5208 80.0192 28.2706 80.1443C28.2706 80.1443 28.1456 80.2693 26.3943 82.2708C26.2691 82.521 26.019 82.6461 25.7688 82.6461H25.6436C25.5187 82.6461 25.2685 82.521 25.1433 82.396L24.5178 82.1458C23.1418 81.5203 21.891 80.7696 20.8902 79.769C20.6401 79.5188 20.2647 79.2687 20.0146 79.0185C19.1389 78.1429 18.2632 77.142 17.6379 76.0162L17.5128 75.766C17.3878 75.6409 17.3878 75.5159 17.2626 75.2657C17.2626 75.0156 17.2626 74.7654 17.3878 74.6402C17.3878 74.6402 17.8881 74.0147 18.2632 73.6396C18.5136 73.3892 18.6386 73.0141 18.8887 72.7639C19.1389 72.3886 19.2641 71.8883 19.1389 71.5129C19.0139 70.8874 17.5128 67.51 17.1376 66.7595C16.8873 66.3842 16.6373 66.2592 16.262 66.134H14.886C14.6356 66.134 14.3856 66.2592 14.1353 66.2592L14.0101 66.3842C13.76 66.5093 13.5098 66.7595 13.2597 66.8845C13.0095 67.1348 12.8843 67.3848 12.6342 67.6352C11.7585 68.761 11.2582 70.137 11.2582 71.5129C11.2582 72.5136 11.5083 73.5144 11.8837 74.3901L12.0088 74.7654C13.1347 77.142 14.6356 79.2687 16.6373 81.145L17.1376 81.6453C17.5128 82.0206 17.8881 82.2708 18.1383 82.6459C20.7652 84.8978 23.7673 86.5239 27.1448 87.3996C27.5201 87.5245 28.0205 87.5245 28.3958 87.6497H29.6466C30.2721 87.6497 31.0226 87.3996 31.5231 87.1494C31.8982 86.8992 32.1484 86.8992 32.3986 86.6491L32.6489 86.3987C32.8991 86.1486 33.1492 86.0236 33.3994 85.7734C33.6495 85.5233 33.8997 85.2731 34.0249 85.0228C34.275 84.5224 34.4 83.8969 34.5252 83.2716V82.396C34.5252 82.396 34.4 82.2708 34.1499 82.1458V82.1458Z" fill="white"/>
</g>
<defs>
<clipPath id="clip0_329_1344">
<rect width="100" height="100" fill="white"/>
</clipPath>
</defs>
</svg>
