<svg width="349" height="123" viewBox="0 0 349 123" fill="none" xmlns="http://www.w3.org/2000/svg">
<path d="M348.574 23.9059C348.481 23.8977 348.395 23.8532 348.335 23.7819C348.275 23.7107 348.245 23.6185 348.252 23.5254C348.493 20.6181 348.128 17.6924 347.18 14.9335C346.231 12.1746 344.721 9.64264 342.743 7.49784C340.766 5.35303 338.364 3.64215 335.691 2.47343C333.019 1.30471 330.132 0.703631 327.215 0.708249C327.121 0.708249 327.03 0.67093 326.964 0.60441C326.897 0.53789 326.86 0.447665 326.86 0.353591C326.862 0.26064 326.9 0.171998 326.966 0.106866C327.032 0.0417345 327.122 0.00529507 327.215 0.00531044C330.226 0.00474715 333.206 0.629005 335.964 1.83867C338.722 3.04833 341.199 4.81706 343.239 7.03304C345.278 9.24902 346.836 11.8641 347.813 14.7129C348.79 17.5616 349.166 20.5821 348.916 23.5835C348.91 23.6702 348.871 23.7514 348.808 23.8111C348.745 23.8707 348.661 23.9046 348.574 23.9059V23.9059Z" fill="#EFFF33"/>
<path d="M320.688 122.237H244.272C244.178 122.237 244.088 122.199 244.021 122.133C243.954 122.066 243.917 121.976 243.917 121.882C243.919 121.789 243.957 121.7 244.023 121.635C244.09 121.57 244.179 121.534 244.272 121.534H320.688C325.971 121.504 331.052 119.505 334.938 115.926C338.824 112.348 341.235 107.448 341.7 102.186L342.744 89.578C342.753 89.485 342.797 89.399 342.868 89.3386C342.94 89.2782 343.032 89.2484 343.125 89.2556C343.17 89.2588 343.215 89.2711 343.255 89.2918C343.296 89.3124 343.332 89.3411 343.362 89.3759C343.391 89.4108 343.413 89.4512 343.427 89.4947C343.441 89.5383 343.445 89.5842 343.441 89.6296L342.396 102.244C341.915 107.68 339.423 112.742 335.409 116.439C331.394 120.136 326.146 122.203 320.688 122.237V122.237Z" fill="#EFFF33"/>
<path d="M29.9076 122.237H22.0912C19.0798 122.231 16.102 121.604 13.3442 120.395C10.5865 119.185 8.10832 117.419 6.06494 115.207C4.02943 112.987 2.47459 110.371 1.49797 107.522C0.52135 104.673 0.144022 101.653 0.389656 98.6518L2.62752 71.6879C2.63079 71.6421 2.64307 71.5974 2.66366 71.5564C2.68425 71.5154 2.71275 71.4788 2.74751 71.4489C2.78227 71.4189 2.82261 71.3961 2.86621 71.3818C2.90981 71.3675 2.95582 71.3619 3.00158 71.3654C3.09459 71.3736 3.18061 71.4182 3.24098 71.4894C3.30135 71.5606 3.33119 71.6528 3.32403 71.7459L1.08617 98.7099C0.849092 101.615 1.2148 104.537 2.16034 107.294C3.10588 110.05 4.61085 112.582 6.58087 114.73C8.55822 116.871 10.9566 118.58 13.6256 119.751C16.2946 120.922 19.1767 121.529 22.0912 121.534H29.9076C29.9999 121.534 30.0885 121.57 30.1538 121.636C30.2191 121.701 30.2558 121.789 30.2558 121.882C30.2558 121.975 30.2193 122.064 30.1542 122.13C30.0891 122.197 30.0005 122.235 29.9076 122.237Z" fill="#EFFF33"/>
<path d="M7.23223 20.3653C7.18615 20.3629 7.14103 20.3512 7.09959 20.3309C7.05815 20.3106 7.02126 20.2821 6.99112 20.2472C6.96099 20.2122 6.93825 20.1715 6.92427 20.1276C6.91029 20.0836 6.90536 20.0372 6.90977 19.9913C7.39122 14.5551 9.88262 9.49373 13.897 5.79657C17.9114 2.0994 23.1603 0.0321383 28.6177 -0.00115967H110.406C110.499 -0.00115967 110.587 0.0355578 110.652 0.100868C110.718 0.166179 110.754 0.254758 110.754 0.347121C110.754 0.440088 110.718 0.529319 110.653 0.595657C110.588 0.661995 110.499 0.700089 110.406 0.701779H28.6177C23.3351 0.731144 18.2536 2.7307 14.3675 6.30907C10.4814 9.88744 8.07038 14.7871 7.60628 20.0493C7.59808 20.1406 7.5542 20.225 7.48417 20.2842C7.41415 20.3433 7.32362 20.3725 7.23223 20.3653V20.3653Z" fill="#EFFF33"/>
<path d="M321.34 0.708248H274.68C274.586 0.708248 274.495 0.67093 274.429 0.60441C274.362 0.53789 274.325 0.447664 274.325 0.353591C274.327 0.260639 274.365 0.171997 274.431 0.106866C274.497 0.0417341 274.587 0.0052947 274.68 0.00531006H321.34C321.432 0.0052947 321.522 0.0417341 321.588 0.106866C321.654 0.171997 321.693 0.260639 321.694 0.353591C321.694 0.447664 321.657 0.53789 321.59 0.60441C321.524 0.67093 321.434 0.708248 321.34 0.708248Z" fill="#EFFF33"/>
</svg>
