<svg width="236" height="20" viewBox="0 0 236 20" fill="none" xmlns="http://www.w3.org/2000/svg">
<path d="M71.3398 4.70508V15.9785H75.5664C78.9414 15.9785 80.8711 13.9082 80.8711 10.291C80.8711 6.75195 78.918 4.70508 75.5664 4.70508H71.3398ZM73.3555 6.40039H75.3008C77.5117 6.40039 78.8164 7.83789 78.8164 10.3223C78.8164 12.8613 77.543 14.2832 75.3008 14.2832H73.3555V6.40039ZM88.5508 13.6426C88.2695 14.2832 87.6055 14.6426 86.6445 14.6426C85.3711 14.6426 84.5508 13.7363 84.5039 12.291V12.1895H90.4727V11.5723C90.4727 8.89258 89.0117 7.27539 86.5742 7.27539C84.0977 7.27539 82.5586 9.00195 82.5586 11.7441C82.5586 14.4785 84.0742 16.1504 86.5898 16.1504C88.6055 16.1504 90.0352 15.1816 90.3867 13.6426H88.5508ZM86.5664 8.7832C87.7305 8.7832 88.4961 9.60352 88.5352 10.9004H84.5117C84.5977 9.61914 85.4102 8.7832 86.5664 8.7832ZM94.7695 16.1191C95.8867 16.1191 96.8242 15.6348 97.3008 14.8066H97.4336V15.9785H99.3008V10.1426C99.3008 8.33789 98.0664 7.27539 95.8711 7.27539C93.8398 7.27539 92.4258 8.22852 92.2695 9.7207H94.0977C94.2773 9.13477 94.8867 8.81445 95.7773 8.81445C96.8242 8.81445 97.3867 9.29102 97.3867 10.1426V10.877L95.1836 11.0098C93.1055 11.127 91.9414 12.0254 91.9414 13.5566C91.9414 15.1191 93.1211 16.1191 94.7695 16.1191ZM95.3398 14.627C94.4805 14.627 93.8633 14.1973 93.8633 13.4629C93.8633 12.752 94.3711 12.3535 95.457 12.2832L97.3867 12.1504V12.8457C97.3867 13.8613 96.5117 14.627 95.3398 14.627ZM101.715 15.9785H103.652V4.13477H101.715V15.9785ZM115.941 13.6426C115.66 14.2832 114.996 14.6426 114.035 14.6426C112.762 14.6426 111.941 13.7363 111.895 12.291V12.1895H117.863V11.5723C117.863 8.89258 116.402 7.27539 113.965 7.27539C111.488 7.27539 109.949 9.00195 109.949 11.7441C109.949 14.4785 111.465 16.1504 113.98 16.1504C115.996 16.1504 117.426 15.1816 117.777 13.6426H115.941ZM113.957 8.7832C115.121 8.7832 115.887 9.60352 115.926 10.9004H111.902C111.988 9.61914 112.801 8.7832 113.957 8.7832ZM119.809 15.9785H121.746V11.002C121.746 9.7207 122.473 8.91602 123.629 8.91602C124.809 8.91602 125.355 9.58008 125.355 10.9082V15.9785H127.293V10.4551C127.293 8.42383 126.254 7.27539 124.348 7.27539C123.074 7.27539 122.215 7.85352 121.809 8.80664H121.676V7.43945H119.809V15.9785ZM132.684 16.1191C133.871 16.1191 134.855 15.5645 135.34 14.627H135.473V15.9785H137.348V4.13477H135.41V8.79883H135.277C134.824 7.86133 133.855 7.29883 132.684 7.29883C130.527 7.29883 129.168 9.00195 129.168 11.7051C129.168 14.416 130.52 16.1191 132.684 16.1191ZM133.285 8.91602C134.613 8.91602 135.434 9.98633 135.434 11.7129C135.434 13.4473 134.621 14.5098 133.285 14.5098C131.957 14.5098 131.152 13.4629 131.152 11.7129C131.152 9.9707 131.965 8.91602 133.285 8.91602ZM139.598 9.87695C139.598 11.1582 140.371 11.9082 142.012 12.2832L143.527 12.6348C144.34 12.8223 144.707 13.1348 144.707 13.6191C144.707 14.2676 144.027 14.7129 143.051 14.7129C142.082 14.7129 141.48 14.3223 141.293 13.6895H139.379C139.527 15.2285 140.871 16.1504 143.004 16.1504C145.137 16.1504 146.645 15.0645 146.645 13.4316C146.645 12.1738 145.887 11.4785 144.254 11.1035L142.746 10.7676C141.887 10.5645 141.48 10.2598 141.48 9.77539C141.48 9.14258 142.145 8.71289 143.027 8.71289C143.934 8.71289 144.504 9.10352 144.645 9.70508H146.465C146.324 8.16602 145.051 7.27539 143.02 7.27539C141.004 7.27539 139.598 8.3457 139.598 9.87695ZM153.855 6.00977C154.496 6.00977 155.02 5.50195 155.02 4.86133C155.02 4.22852 154.496 3.71289 153.855 3.71289C153.223 3.71289 152.699 4.22852 152.699 4.86133C152.699 5.50195 153.223 6.00977 153.855 6.00977ZM152.895 15.9785H154.824V7.43945H152.895V15.9785ZM157.23 15.9785H159.168V11.002C159.168 9.7207 159.895 8.91602 161.051 8.91602C162.23 8.91602 162.777 9.58008 162.777 10.9082V15.9785H164.715V10.4551C164.715 8.42383 163.676 7.27539 161.77 7.27539C160.496 7.27539 159.637 7.85352 159.23 8.80664H159.098V7.43945H157.23V15.9785Z" fill="white"/>
<line x1="169" y1="12.5" x2="236" y2="12.5" stroke="white"/>
<line y1="12.5" x2="67" y2="12.5" stroke="white"/>
</svg>
