<svg width="100" height="100" viewBox="0 0 100 100" fill="none" xmlns="http://www.w3.org/2000/svg">
<path d="M33.1763 13.8631V3.46404C33.1763 2.54532 33.5413 1.66423 34.1909 1.01459C34.8406 0.36496 35.7217 0 36.6404 0H64.3527C65.2714 0 66.1525 0.36496 66.8021 1.01459C67.4518 1.66423 67.8167 2.54532 67.8167 3.46404V13.8631H95.529C96.4477 13.8631 97.3288 14.228 97.9785 14.8777C98.6281 15.5273 98.9931 16.4084 98.9931 17.3271C98.9931 18.2458 98.6281 19.1269 97.9785 19.7766C97.3288 20.4262 96.4477 20.7912 95.529 20.7912H5.46404C4.54532 20.7912 3.66423 20.4262 3.01459 19.7766C2.36496 19.1269 2 18.2458 2 17.3271C2 16.4084 2.36496 15.5273 3.01459 14.8777C3.66423 14.228 4.54532 13.8631 5.46404 13.8631H33.1763ZM40.1044 13.8631H60.8886V6.935H40.1044V13.8631ZM15.8562 97C14.9374 97 14.0563 96.635 13.4067 95.9854C12.7571 95.3358 12.3921 94.4547 12.3921 93.536V20.7912H88.6009V93.536C88.6009 94.4547 88.236 95.3358 87.5864 95.9854C86.9367 96.635 86.0556 97 85.1369 97H15.8562ZM40.1044 76.2158C41.0231 76.2158 41.9042 75.8508 42.5539 75.2012C43.2035 74.5515 43.5685 73.6705 43.5685 72.7517V38.1113C43.5685 37.1926 43.2035 36.3115 42.5539 35.6619C41.9042 35.0123 41.0231 34.6473 40.1044 34.6473C39.1857 34.6473 38.3046 35.0123 37.655 35.6619C37.0053 36.3115 36.6404 37.1926 36.6404 38.1113V72.7517C36.6404 73.6705 37.0053 74.5515 37.655 75.2012C38.3046 75.8508 39.1857 76.2158 40.1044 76.2158ZM60.8886 76.2158C61.8074 76.2158 62.6885 75.8508 63.3381 75.2012C63.9877 74.5515 64.3527 73.6705 64.3527 72.7517V38.1113C64.3527 37.1926 63.9877 36.3115 63.3381 35.6619C62.6885 35.0123 61.8074 34.6473 60.8886 34.6473C59.9699 34.6473 59.0888 35.0123 58.4392 35.6619C57.7896 36.3115 57.4246 37.1926 57.4246 38.1113V72.7517C57.4246 73.6705 57.7896 74.5515 58.4392 75.2012C59.0888 75.8508 59.9699 76.2158 60.8886 76.2158Z" fill="#F44336"/>
<path d="M78.5 100C90.3741 100 100 90.3741 100 78.5C100 66.6259 90.3741 57 78.5 57C66.6259 57 57 66.6259 57 78.5C57 90.3741 66.6259 100 78.5 100Z" fill="white"/>
<path d="M88.4917 84.0536C88.9112 84.4731 88.9114 85.1532 88.4921 85.5729L85.5925 88.4752C85.1729 88.8952 84.4923 88.8953 84.0726 88.4756L67.9081 72.3131C67.4885 71.8936 67.4884 71.2133 67.9079 70.7937L70.8092 67.891C71.2288 67.4712 71.9093 67.4711 72.329 67.8908L88.4917 84.0536Z" fill="#F44336"/>
<path d="M72.3149 88.4903C71.8954 88.9098 71.2153 88.9099 70.7957 88.4906L67.8933 85.591C67.4733 85.1714 67.4732 84.4909 67.8929 84.0711L84.0554 67.9067C84.4749 67.4871 85.1552 67.487 85.5748 67.9065L88.4775 70.8077C88.8973 71.2273 88.8974 71.9078 88.4777 72.3275L72.3149 88.4903Z" fill="#F44336"/>
</svg>
