<svg width="233" height="179" viewBox="0 0 233 179" fill="none" xmlns="http://www.w3.org/2000/svg">
<g opacity="0.7" clip-path="url(#clip0_1379_4377)">
<path opacity="0.7" d="M199.828 99.0128L161.102 113.562L182.525 170.585L221.251 156.036L199.828 99.0128Z" fill="#9AAADB"/>
<path d="M204.498 149.661L203.567 151.924L187.484 145.625L188.419 143.363L204.498 149.661Z" fill="#F8E2E2"/>
<path d="M198.083 139.309L200.39 140.213L193.903 155.978L191.593 155.073L198.083 139.309Z" fill="#F8E2E2"/>
<path d="M187.628 114.907C187.647 114.956 183.759 116.463 178.944 118.269C174.128 120.075 170.21 121.503 170.189 121.464C170.168 121.426 174.061 119.913 178.874 118.102C183.687 116.292 187.614 114.84 187.628 114.907Z" fill="#E0E0E0"/>
<path d="M200.965 113.585C200.983 113.64 194.461 116.254 186.417 119.421C178.372 122.588 171.804 125.113 171.786 125.057C171.769 125.002 178.291 122.388 186.336 119.217C194.382 116.046 200.938 113.526 200.965 113.585Z" fill="white"/>
<path d="M202.462 118.382C202.48 118.438 195.958 121.051 187.913 124.223C179.867 127.394 173.301 129.91 173.284 129.855C173.266 129.799 179.765 127.2 187.829 124.034C195.892 120.868 202.451 118.333 202.462 118.382Z" fill="white"/>
<path d="M203.956 123.175C203.973 123.23 197.448 125.843 189.406 129.015C181.364 132.187 174.794 134.703 174.777 134.647C174.76 134.592 181.28 131.982 189.326 128.807C197.373 125.632 203.94 123.128 203.956 123.175Z" fill="white"/>
<path d="M205.467 127.989C205.485 128.045 198.964 130.654 190.919 133.826C182.873 136.997 176.306 139.513 176.288 139.462C176.27 139.41 182.793 136.793 190.838 133.622C198.884 130.45 205.433 127.929 205.467 127.989Z" fill="white"/>
<path d="M225.532 172.475C225.532 174.191 175.126 175.621 112.977 175.621C50.8284 175.621 0.422852 174.191 0.422852 172.475C0.422852 170.759 50.8284 169.329 112.977 169.329C175.126 169.329 225.532 170.759 225.532 172.475Z" fill="url(#paint0_linear_1379_4377)"/>
<g style="mix-blend-mode:multiply">
<path d="M225.532 172.475C225.532 174.191 175.126 175.621 112.977 175.621C50.8284 175.621 0.422852 174.191 0.422852 172.475C0.422852 170.759 50.8284 169.329 112.977 169.329C175.126 169.329 225.532 170.759 225.532 172.475Z" fill="url(#paint1_linear_1379_4377)"/>
</g>
<g style="mix-blend-mode:multiply">
<path d="M225.532 172.475C225.532 174.191 175.126 175.621 112.977 175.621C50.8284 175.621 0.422852 174.191 0.422852 172.475C0.422852 170.759 50.8284 169.329 112.977 169.329C175.126 169.329 225.532 170.759 225.532 172.475Z" fill="url(#paint2_linear_1379_4377)"/>
</g>
<path d="M16.6699 39.5855V46.7942L16.8022 166.101C16.8022 167.887 17.5297 169.474 18.7862 170.598C19.8444 171.59 21.2993 172.252 22.9527 172.252L163.886 171.656V51.2913C163.886 48.4475 161.571 46.199 158.793 46.199L109.192 46.3974L52.7133 46.6619L50.597 42.6938L47.8855 37.6015C47.2903 36.4772 46.0337 35.6836 44.711 35.7497L20.5057 35.8158C18.2572 35.8158 16.6699 37.4692 16.6699 39.5855Z" fill="#9AAADB"/>
<path d="M172.947 24.6028L156.215 87.5629C154.694 93.2505 148.874 96.6234 143.253 95.1023L96.8261 82.7351C91.1386 81.214 87.7657 75.3942 89.2868 69.7727L104.498 12.5663L124.272 0.728149L165.342 11.6404C171.029 13.0953 174.402 18.9152 172.947 24.6028Z" fill="url(#paint3_linear_1379_4377)"/>
<path d="M124.338 0.661987L120.105 16.6666L104.563 12.5662L124.338 0.661987Z" fill="#BDE5FF"/>
<path d="M138.425 19.4443C143.451 20.767 146.03 24.7351 144.774 29.5629C143.319 35.1182 138.822 36.3747 133.465 34.9859L132.407 38.5572L129.364 37.7636L130.819 31.6792L131.944 31.9437C136.309 33.1341 140.211 33.2664 141.467 28.637C142.261 25.5948 140.806 23.1478 137.697 22.3542C134.589 21.4944 132.142 22.8171 131.349 25.7932L128.042 24.9335C129.232 20.304 133.465 18.1216 138.425 19.4443ZM128.769 46.0304C127.447 45.6997 126.653 44.377 127.05 43.0543C127.38 41.7317 128.703 40.938 130.026 41.3348C131.282 41.6655 132.01 42.9882 131.679 44.3109C131.349 45.5675 130.092 46.3611 128.769 46.0304Z" fill="white"/>
<path d="M18.7217 170.532C19.7798 171.524 21.2348 172.185 22.8882 172.185H163.689C163.689 172.185 180.818 161.802 188.489 125.164C193.714 100.032 187.299 77.9435 185.513 73.1818C185.249 72.5204 184.587 72.0575 183.86 72.0575H40.6123C39.3557 72.0575 38.4959 73.3141 38.9589 74.4383C41.472 80.7873 46.4321 106.514 40.8107 129.727C34.0649 157.371 23.285 166.63 18.7217 170.532Z" fill="#D2DBF9"/>
<path d="M72.6018 41.8819L65.3714 36.2169C64.4024 35.4715 64.2534 34.0552 64.9988 33.0862L74.2416 21.3835L78.7885 20.7872L85.1989 25.8559C86.1679 26.6013 86.317 28.0176 85.5716 28.9866L75.6579 41.5837C74.987 42.4782 73.5708 42.6273 72.6018 41.8819ZM74.5398 21.6817L65.3714 33.3098C64.7751 34.1298 64.8497 35.2479 65.6696 35.9187L72.8999 41.5837C73.7199 42.18 74.838 42.1055 75.5088 41.2856L85.4225 28.6884C86.0189 27.8685 85.9443 26.7504 85.1244 26.0795L78.7885 21.0854L74.5398 21.6817Z" fill="#D7CBE6"/>
<path d="M78.7875 20.9362L76.8494 23.396L74.3896 21.5325L78.7875 20.9362Z" fill="#D7CBE6"/>
<path d="M82.2994 28.8685L75.8027 23.7454L75.6181 23.9795L82.1148 29.1027L82.2994 28.8685Z" fill="#D7CBE6"/>
<path d="M81.2837 30.141L74.7871 25.0178L74.6025 25.2519L81.0991 30.3751L81.2837 30.141Z" fill="#D7CBE6"/>
<path d="M80.2213 31.4723L73.7246 26.3491L73.54 26.5832L80.0366 31.7064L80.2213 31.4723Z" fill="#D7CBE6"/>
<path d="M79.2076 32.7428L72.7109 27.6196L72.5263 27.8537L79.023 32.9769L79.2076 32.7428Z" fill="#D7CBE6"/>
<path d="M78.2076 34.1189L71.7109 28.9957L71.5263 29.2298L78.023 34.353L78.2076 34.1189Z" fill="#D7CBE6"/>
<path d="M77.149 35.449L70.6523 30.3258L70.4677 30.5599L76.9644 35.6831L77.149 35.449Z" fill="#D7CBE6"/>
<path d="M76.1373 36.7193L69.6406 31.5961L69.456 31.8302L75.9527 36.9534L76.1373 36.7193Z" fill="#D7CBE6"/>
<path d="M75.0767 38.0492L68.5801 32.926L68.3955 33.1601L74.8921 38.2833L75.0767 38.0492Z" fill="#D7CBE6"/>
<path opacity="0.1" d="M111.25 156.366C122.041 156.366 130.789 147.619 130.789 136.828C130.789 126.037 122.041 117.289 111.25 117.289C100.46 117.289 91.7119 126.037 91.7119 136.828C91.7119 147.619 100.46 156.366 111.25 156.366Z" fill="#FF3C3C"/>
<path d="M160.331 166.214L157.101 171.111L135.166 156.366L125.631 149.958L128.913 145.112L138.396 151.468L160.331 166.214Z" fill="url(#paint4_linear_1379_4377)"/>
<path d="M138.396 151.468L130.841 146.415C135.582 136.775 132.561 124.844 123.39 118.696C113.387 111.974 99.7878 114.684 93.1186 124.688C86.3973 134.691 89.1067 148.29 99.1105 154.959C108.281 161.108 120.473 159.336 127.611 151.312L135.166 156.366L138.396 151.468ZM100.569 152.719C91.7639 146.831 89.4193 134.9 95.3069 126.094C101.195 117.289 113.126 114.944 121.932 120.832C130.737 126.72 133.082 138.651 127.194 147.457C121.306 156.262 109.375 158.607 100.569 152.719Z" fill="url(#paint5_linear_1379_4377)"/>
<path d="M89.2179 89.8204C84.9168 89.8204 82.2197 92.7524 82.2197 97.4418C82.2197 102.131 84.9168 105.053 89.2179 105.053C93.5088 105.053 96.2059 102.131 96.2059 97.4418C96.2059 92.7524 93.5088 89.8204 89.2179 89.8204ZM89.2179 92.068C91.8435 92.068 93.519 94.1521 93.519 97.4418C93.519 100.721 91.8435 102.805 89.2179 102.805C86.5821 102.805 84.9168 100.721 84.9168 97.4418C84.9168 94.1521 86.5821 92.068 89.2179 92.068ZM106.063 89.8204C101.762 89.8204 99.0653 92.7524 99.0653 97.4418C99.0653 102.131 101.762 105.053 106.063 105.053C110.354 105.053 113.051 102.131 113.051 97.4418C113.051 92.7524 110.354 89.8204 106.063 89.8204ZM106.063 92.068C108.689 92.068 110.365 94.1521 110.365 97.4418C110.365 100.721 108.689 102.805 106.063 102.805C103.428 102.805 101.762 100.721 101.762 97.4418C101.762 94.1521 103.428 92.068 106.063 92.068ZM116.411 90.0656V104.808H119.047V99.9345H122.03C125.014 99.9345 127.108 97.9424 127.108 95C127.108 92.0577 125.075 90.0656 122.143 90.0656H116.411ZM119.047 92.2212H121.448C123.338 92.2212 124.431 93.2326 124.431 95C124.431 96.7879 123.328 97.8095 121.438 97.8095H119.047V92.2212ZM129.681 100.691C129.804 103.388 132.062 105.053 135.474 105.053C139.019 105.053 141.236 103.275 141.236 100.456C141.236 98.2693 139.938 97.0229 136.833 96.3793L135.239 96.0523C133.4 95.6641 132.664 95.0205 132.664 94.0193C132.664 92.7831 133.829 92.0067 135.464 92.0067C137.149 92.0067 138.314 92.8444 138.437 94.2338H140.96C140.899 91.598 138.743 89.8204 135.484 89.8204C132.286 89.8204 130.008 91.5776 130.008 94.1725C130.008 96.3282 131.387 97.7176 134.34 98.3204L135.923 98.6473C137.844 99.0457 138.58 99.6996 138.58 100.762C138.58 101.988 137.343 102.867 135.566 102.867C133.727 102.867 132.399 102.049 132.205 100.691H129.681ZM144.974 90.0656L145.178 99.9448H147.395L147.599 90.0656H144.974ZM146.282 105.012C147.119 105.012 147.773 104.368 147.773 103.561C147.773 102.754 147.119 102.121 146.282 102.121C145.454 102.121 144.8 102.754 144.8 103.561C144.8 104.368 145.454 105.012 146.282 105.012Z" fill="#0F73F2"/>
<g clip-path="url(#clip1_1379_4377)">
<path d="M110.872 140.211C111.824 140.211 112.737 139.833 113.411 139.159C114.084 138.486 114.462 137.573 114.462 136.621C114.462 136.515 114.457 136.411 114.448 136.308L110.56 140.197C110.662 140.206 110.766 140.211 110.872 140.211ZM122.756 125.514L121.387 124.146C121.339 124.098 121.274 124.071 121.206 124.071C121.138 124.071 121.072 124.098 121.024 124.146L117.52 127.652C115.586 126.664 113.413 126.17 111 126.17C104.838 126.17 100.241 129.379 97.2086 135.797C97.0867 136.055 97.0234 136.337 97.0234 136.622C97.0234 136.908 97.0867 137.19 97.2086 137.448C98.4204 140 99.8795 142.046 101.586 143.585L98.1947 146.975C98.1466 147.023 98.1196 147.089 98.1196 147.157C98.1196 147.225 98.1466 147.29 98.1947 147.338L99.5632 148.707C99.6113 148.755 99.6765 148.782 99.7445 148.782C99.8125 148.782 99.8777 148.755 99.9258 148.707L122.756 125.877C122.78 125.853 122.799 125.825 122.812 125.794C122.825 125.763 122.832 125.729 122.832 125.696C122.832 125.662 122.825 125.629 122.812 125.598C122.799 125.566 122.78 125.538 122.756 125.514ZM105.23 136.621C105.229 135.646 105.482 134.688 105.962 133.84C106.442 132.992 107.134 132.283 107.97 131.781C108.805 131.28 109.757 131.004 110.731 130.98C111.705 130.955 112.669 131.184 113.529 131.643L111.97 133.201C111.341 133 110.67 132.976 110.028 133.131C109.387 133.287 108.8 133.616 108.334 134.083C107.867 134.549 107.538 135.135 107.382 135.777C107.227 136.418 107.251 137.09 107.452 137.719L105.894 139.278C105.456 138.46 105.228 137.548 105.23 136.621V136.621Z" fill="#6683DD"/>
<path d="M124.792 135.793C123.664 133.417 122.321 131.479 120.763 129.98L116.142 134.601C116.532 135.619 116.618 136.728 116.391 137.795C116.163 138.861 115.632 139.838 114.861 140.609C114.091 141.38 113.113 141.911 112.047 142.139C110.98 142.366 109.871 142.28 108.853 141.89L104.934 145.809C106.752 146.651 108.774 147.072 111.001 147.072C117.163 147.072 121.76 143.863 124.792 137.444C124.914 137.186 124.978 136.904 124.978 136.619C124.978 136.334 124.914 136.052 124.792 135.793V135.793Z" fill="#6683DD"/>
</g>
</g>
<defs>
<linearGradient id="paint0_linear_1379_4377" x1="223.282" y1="172.492" x2="3.58032" y2="172.492" gradientUnits="userSpaceOnUse">
<stop stop-color="#E2F4FF"/>
<stop offset="1" stop-color="#D7ECFF"/>
</linearGradient>
<linearGradient id="paint1_linear_1379_4377" x1="223.282" y1="172.492" x2="3.58032" y2="172.492" gradientUnits="userSpaceOnUse">
<stop stop-color="#E2F4FF"/>
<stop offset="1" stop-color="#D7ECFF"/>
</linearGradient>
<linearGradient id="paint2_linear_1379_4377" x1="223.282" y1="172.492" x2="3.58032" y2="172.492" gradientUnits="userSpaceOnUse">
<stop stop-color="#E2F4FF"/>
<stop offset="1" stop-color="#D7ECFF"/>
</linearGradient>
<linearGradient id="paint3_linear_1379_4377" x1="147.975" y1="7.59663" x2="123.131" y2="67.6354" gradientUnits="userSpaceOnUse">
<stop stop-color="#E6F5FF"/>
<stop offset="1" stop-color="#B3D0FF"/>
</linearGradient>
<linearGradient id="paint4_linear_1379_4377" x1="125.625" y1="158.1" x2="160.356" y2="158.1" gradientUnits="userSpaceOnUse">
<stop offset="0.28125" stop-color="white"/>
<stop offset="1" stop-color="#4ABEFF"/>
</linearGradient>
<linearGradient id="paint5_linear_1379_4377" x1="89.4246" y1="136.802" x2="138.421" y2="136.802" gradientUnits="userSpaceOnUse">
<stop stop-color="#A7B7E7"/>
<stop offset="1" stop-color="#5A97F1"/>
</linearGradient>
<clipPath id="clip0_1379_4377">
<rect width="232.803" height="178.431" fill="white"/>
</clipPath>
<clipPath id="clip1_1379_4377">
<rect width="28" height="24.8621" fill="white" transform="translate(97 124.069)"/>
</clipPath>
</defs>
</svg>
