<svg width="299" height="162" viewBox="0 0 299 162" fill="none" xmlns="http://www.w3.org/2000/svg">
<g clip-path="url(#clip0_4182_22446)">
<mask id="mask0_4182_22446" style="mask-type:alpha" maskUnits="userSpaceOnUse" x="5" y="1" width="289" height="289">
<rect x="149.5" y="-58" width="287.792" height="287.792" rx="143.896" transform="rotate(45 149.5 -58)" fill="white"/>
</mask>
<g mask="url(#mask0_4182_22446)">
<path d="M708.966 -569.585H-411.227V898.854H708.966V-569.585Z" fill="#64A43B"/>
<mask id="mask1_4182_22446" style="mask-type:alpha" maskUnits="userSpaceOnUse" x="-412" y="-570" width="1121" height="1469">
<path d="M708.966 -569.585H-411.227V898.854H708.966V-569.585Z" fill="#64A43B"/>
</mask>
<g mask="url(#mask1_4182_22446)">
<path d="M148.484 -689.537H64.7109L106.694 -188.256L148.484 165.021L190.467 -188.256L232.256 -689.537H148.484Z" fill="#4F9820"/>
<path d="M-456.326 770.604L-515.563 711.368L-131.417 386.595L147.937 166.341L-72.1805 445.831L-397.09 829.841L-456.326 770.604Z" fill="#4F9820"/>
<path d="M753.297 -439.017L694.061 -498.253L369.288 -114.107L149.033 165.247L428.524 -54.871L812.533 -379.781L753.297 -439.017Z" fill="#4F9820"/>
<path d="M-706.847 165.796L-706.847 82.0234L-205.566 124.006L147.711 165.796L-205.566 207.779L-706.847 249.569L-706.847 165.796Z" fill="#4F9820"/>
<path d="M1003.82 165.796L1003.82 82.0235L502.536 124.006L149.26 165.796L502.536 207.779L1003.82 249.569L1003.82 165.796Z" fill="#4F9820"/>
<path d="M-456.326 -439.015L-397.09 -498.251L-72.317 -114.105L147.938 165.249L-131.553 -54.8691L-515.562 -379.779L-456.326 -439.015Z" fill="#4F9820"/>
<path d="M753.297 770.606L812.533 711.37L428.387 386.597L149.033 166.343L369.151 445.833L694.061 829.843L753.297 770.606Z" fill="#4F9820"/>
<path d="M-185.721 953.128L-262.834 920.395L-28.3223 475.367L148.181 166.503L48.7908 508.1L-108.608 985.86L-185.721 953.128Z" fill="#4F9820"/>
<path d="M482.689 -621.544L405.576 -654.277L248.356 -176.441L148.787 165.08L325.469 -143.709L559.802 -588.812L482.689 -621.544Z" fill="#4F9820"/>
<path d="M-644.564 486.205L-675.946 408.532L-195.439 259.675L147.769 166.082L-164.057 337.348L-613.182 563.877L-644.564 486.205Z" fill="#4F9820"/>
<path d="M941.534 -154.621L910.153 -232.294L461.1 -5.58472L149.202 165.502L492.482 72.0879L972.916 -76.9487L941.534 -154.621Z" fill="#4F9820"/>
<path d="M-638.853 -168.411L-606.121 -245.524L-161.093 -11.0127L147.771 165.491L-193.826 66.1003L-671.586 -91.2983L-638.853 -168.411Z" fill="#4F9820"/>
<path d="M935.824 499.997L968.556 422.884L490.72 265.663L149.199 166.095L457.988 342.776L903.091 577.11L935.824 499.997Z" fill="#4F9820"/>
<path d="M-171.926 -627.255L-94.2538 -658.637L54.6035 -178.13L148.197 165.077L-23.0691 -146.748L-249.599 -595.873L-171.926 -627.255Z" fill="#4F9820"/>
<path d="M468.901 958.843L546.574 927.461L319.865 478.408L148.779 166.511L242.192 509.79L391.229 990.225L468.901 958.843Z" fill="#4F9820"/>
<path opacity="0.8" d="M1111.38 898.854L1111.38 -569.585L-813.646 -569.585L-813.646 898.854L1111.38 898.854Z" fill="url(#paint0_radial_4182_22446)"/>
</g>
</g>
<path d="M147.657 69.4388L166.066 79.1154L162.526 58.5822L177.631 43.7133L156.862 40.8811L147.657 22L138.216 40.8811L117.447 43.7133L132.552 58.5822L129.012 79.1154L147.657 69.4388Z" fill="#E8BA2E"/>
<path d="M88.6528 87.8484L98.0933 91.6247L95.2612 81.7121L101.634 73.9236L91.721 73.4516L86.0566 64.9551L82.7524 74.3956L72.8398 76.9918L80.8643 83.3642L80.1563 93.5128L88.6528 87.8484Z" fill="white"/>
<path d="M147.659 156.999L138.219 87.6113L147.659 81.0029L158.988 87.3753L147.659 156.999Z" fill="#E8BA2E"/>
<path d="M97.8594 133.87L83.2266 104.604L91.015 98.7041L99.5115 101.536L97.8594 133.87Z" fill="#E8BA2E"/>
<path d="M209.021 88.0841L216.337 95.1645L217.282 85.2519L226.25 80.2956L217.045 76.2834L215.393 66.1348L208.549 73.6872L198.4 72.2711L203.357 81.0036L198.872 90.2082L209.021 88.0841Z" fill="white"/>
<path d="M198.399 133.871L197.455 101.773L205.952 98.2324L213.74 104.841L198.399 133.871Z" fill="#E8BA2E"/>
<path d="M54.1054 131.559C54.4373 130.814 55.4944 130.814 55.8263 131.559L57.4237 135.142C57.5607 135.449 57.8509 135.66 58.1853 135.696L62.0873 136.107C62.8981 136.193 63.2247 137.198 62.6191 137.744L59.7044 140.371C59.4546 140.596 59.3437 140.937 59.4135 141.266L60.2276 145.104C60.3968 145.902 59.5416 146.523 58.8353 146.116L55.4365 144.156C55.1452 143.987 54.7865 143.987 54.4952 144.156L51.0963 146.116C50.3901 146.523 49.5349 145.902 49.7041 145.104L50.5182 141.266C50.588 140.937 50.4771 140.596 50.2273 140.371L47.3126 137.744C46.7069 137.198 47.0336 136.193 47.8444 136.107L51.7463 135.696C52.0808 135.66 52.371 135.449 52.5079 135.142L54.1054 131.559Z" fill="white"/>
<path d="M243.105 131.559C243.437 130.814 244.494 130.814 244.826 131.559L246.424 135.142C246.561 135.449 246.851 135.66 247.185 135.696L251.087 136.107C251.898 136.193 252.225 137.198 251.619 137.744L248.704 140.371C248.455 140.596 248.344 140.937 248.413 141.266L249.228 145.104C249.397 145.902 248.542 146.523 247.835 146.116L244.437 144.156C244.145 143.987 243.786 143.987 243.495 144.156L240.096 146.116C239.39 146.523 238.535 145.902 238.704 145.104L239.518 141.266C239.588 140.937 239.477 140.596 239.227 140.371L236.313 137.744C235.707 137.198 236.034 136.193 236.844 136.107L240.746 135.696C241.081 135.66 241.371 135.449 241.508 135.142L243.105 131.559Z" fill="white"/>
</g>
<defs>
<radialGradient id="paint0_radial_4182_22446" cx="0" cy="0" r="1" gradientUnits="userSpaceOnUse" gradientTransform="translate(148.869 164.634) rotate(90) scale(228.365)">
<stop stop-opacity="0.90604"/>
<stop offset="1" stop-opacity="0"/>
</radialGradient>
<clipPath id="clip0_4182_22446">
<rect width="299" height="162" fill="white"/>
</clipPath>
</defs>
</svg>
