<svg width="178" height="150" viewBox="0 0 178 150" fill="none" xmlns="http://www.w3.org/2000/svg">
<path d="M79.9218 17.916C85.6631 13.7447 93.4373 13.7447 99.1786 17.916L155.314 58.701C159.142 61.4818 160.743 66.411 159.281 70.9105L136.614 140.675C135.152 145.174 130.959 148.221 126.228 148.221H52.8728C48.1418 148.221 43.9488 145.174 42.4868 140.675L19.819 70.9105C18.357 66.411 19.9586 61.4818 23.7861 58.701L79.9218 17.916Z" fill="white"/>
<path opacity="0.73" d="M129.135 101.536V118.441C127.283 121.017 125.19 123.432 122.936 125.686V101.536C122.936 101.375 119.877 98.8795 117.543 97.028V95.901L120.36 95.1765C121.487 94.8545 122.695 95.0155 123.822 95.418C124.305 95.6595 124.788 95.8205 125.351 95.9815V98.155C127.686 100.168 129.135 101.375 129.135 101.536Z" fill="#9BD667"/>
<path d="M37.281 28L45.9014 48.2084L52.1665 43.8747L55.8407 49.1976L56.5002 40.2475L64.0843 35.6311L37.281 28Z" fill="#F5E423"/>
<path d="M53.5798 42.9326L45.9015 48.2085L52.1666 43.8747L55.8408 49.1977L56.5003 40.2476L44.347 33.0404L53.5798 42.9326Z" fill="#F5D223"/>
<path d="M56.3119 42.4615L44.347 33.0404L56.5003 40.2476L56.3119 42.4615Z" fill="#E1BD06"/>
<path d="M53.2238 63.2985C53.1433 62.6545 52.9823 61.93 52.8213 61.286L53.8678 61.0445C54.0288 61.6885 54.1898 62.413 54.3508 63.1375L53.2238 63.2985Z" fill="#FF9213"/>
<path d="M41.0684 86.724C39.5389 86.6435 38.0899 86.1605 36.8824 85.3555L37.4459 84.47C38.4924 85.1945 39.7804 85.597 41.1489 85.6775L41.0684 86.724ZM45.3349 85.919L44.8519 84.953C45.8984 84.3895 47.0254 83.5845 47.9914 82.4575L48.7964 83.182C47.7499 84.3895 46.5424 85.275 45.3349 85.919ZM33.9039 82.055C33.3404 80.8475 33.0184 79.5595 33.0184 78.2715C33.0184 78.191 33.0184 78.03 33.0184 77.9495V77.708L34.0649 77.7885V77.9495C34.0649 78.03 34.0649 78.1105 34.0649 78.191C34.0649 79.318 34.3064 80.445 34.8699 81.4915L33.9039 82.055ZM74.3149 81.8135V80.767C75.6834 80.767 77.0519 80.6865 78.5009 80.606L78.5814 81.6525C77.1324 81.733 75.6834 81.733 74.3149 81.8135ZM70.1289 81.6525L69.4849 81.572C68.1969 81.4915 67.0699 81.3305 65.9429 81.089L66.1039 80.0425C67.1504 80.2035 68.2774 80.3645 69.5654 80.445L70.2094 80.5255L70.1289 81.6525ZM82.7674 81.1695L82.6064 80.123C83.9749 79.962 85.3434 79.7205 86.7119 79.479L86.8729 80.5255C85.5044 80.767 84.1359 81.0085 82.7674 81.1695ZM61.7569 80.123C60.5494 79.7205 59.3419 79.157 58.3759 78.5935C58.2149 78.513 58.0539 78.4325 57.8929 78.2715L58.4564 77.386C58.6174 77.4665 58.7784 77.547 58.9394 77.6275C59.9054 78.191 61.0324 78.674 62.1594 79.0765L61.7569 80.123ZM51.2919 79.7205L50.4064 79.2375C51.0504 78.03 51.6944 76.8225 52.0969 75.5345L53.0629 75.8565C52.5799 77.1445 52.0164 78.4325 51.2919 79.7205ZM91.0589 79.5595L90.8174 78.513C92.1054 78.191 93.4739 77.869 94.8424 77.4665L95.1643 78.4325C93.7154 78.9155 92.3469 79.2375 91.0589 79.5595ZM99.1894 77.3055L98.8674 76.3395C100.155 75.937 101.524 75.454 102.812 74.971L103.134 75.937C101.846 76.42 100.477 76.8225 99.1894 77.3055ZM54.3509 75.8565C53.3849 75.132 52.3384 74.4075 51.2114 73.844L50.8894 73.683L51.3724 72.717C51.5334 72.7975 51.6139 72.878 51.7749 72.878C52.9824 73.522 54.0289 74.327 54.9949 74.971L54.3509 75.8565ZM35.5944 74.327L34.8699 73.6025C35.7554 72.717 37.0434 71.9925 38.7339 71.5095L39.0559 72.4755C37.4459 72.9585 36.3189 73.522 35.5944 74.327ZM47.0254 72.3145C45.8179 72.073 44.6104 71.912 43.4029 71.912H43.0004V70.8655C44.4494 70.8655 45.8984 70.946 47.2669 71.268L47.0254 72.3145ZM54.1899 71.6705L53.1434 71.5095C53.3849 70.141 53.5459 68.7725 53.5459 67.404H54.5924C54.5924 68.853 54.4314 70.2215 54.1899 71.6705Z" fill="#FF9213"/>
<path d="M107.159 74.4075L106.756 73.4415C107.4 73.2 108.044 72.9585 108.688 72.717L109.091 73.683C108.447 73.9245 107.803 74.166 107.159 74.4075Z" fill="#C87F00"/>
<path d="M127.284 96.121L90.8979 117.534L54.5924 96.121V96.0405C54.5924 95.8795 56.6049 94.189 59.6639 91.774L59.7444 91.6935C69.8069 83.563 90.8979 66.8995 90.8979 66.8995C90.8979 66.8995 112.069 83.563 122.051 91.774C125.191 94.2695 127.284 95.96 127.284 96.121Z" fill="#7BCB09"/>
<path d="M105.871 49.109H66.6673C63.2863 49.109 60.5493 51.846 60.5493 55.227V114.556C60.5493 117.937 63.2863 120.674 66.6673 120.674H115.853C119.234 120.674 121.971 117.937 121.971 114.556V65.1285L105.871 49.109Z" fill="#30B353"/>
<path d="M105.871 59.0105C105.871 62.3915 108.608 65.1285 111.989 65.1285H121.89L105.871 49.109V59.0105Z" fill="#E1E8CC"/>
<path d="M85.5043 59.1715H71.9803C70.7728 59.1715 69.8068 60.1375 69.8068 61.345V74.869C69.8068 76.0765 70.7728 77.0425 71.9803 77.0425H85.5043C86.7118 77.0425 87.6778 76.0765 87.6778 74.869V61.345C87.6778 60.1375 86.7118 59.1715 85.5043 59.1715Z" fill="white"/>
<path d="M104.1 81.953H71.5778C70.6118 81.953 69.8068 82.758 69.8068 83.724C69.8068 84.69 70.6118 85.495 71.5778 85.495H104.1C105.066 85.495 105.871 84.69 105.871 83.724C105.871 82.758 105.066 81.953 104.1 81.953Z" fill="white"/>
<path d="M104.1 90.7275H71.5778C70.6118 90.7275 69.8068 91.5325 69.8068 92.4985C69.8068 93.4645 70.6118 94.2695 71.5778 94.2695H104.1C105.066 94.2695 105.871 93.4645 105.871 92.4985C105.871 91.452 105.066 90.7275 104.1 90.7275Z" fill="white"/>
<path d="M89.3683 99.18H71.6583C70.6923 99.18 69.8873 99.985 69.8873 100.951C69.8873 101.917 70.6923 102.722 71.6583 102.722H89.3683C90.3343 102.722 91.1393 101.917 91.1393 100.951C91.0588 99.9045 90.3343 99.18 89.3683 99.18Z" fill="white"/>
<path d="M127.284 96.121V130.977C127.284 133.392 125.271 135.405 122.856 135.405H59.0199C56.6049 135.405 54.5924 133.392 54.5924 130.977V96.121L90.9784 117.534L127.284 96.121Z" fill="#B3F50E"/>
<path d="M126.076 134.117L102.651 110.691L90.8978 117.614L79.1449 110.691L55.7194 134.117C56.5244 135.002 57.6514 135.485 58.9394 135.485H122.856C124.144 135.485 125.271 134.922 126.076 134.117Z" fill="#8DEB09"/>
<path d="M36.4832 31.3002L39.8478 39.0559C40.0188 39.4551 39.8478 39.9113 39.4486 40.0824L39.3345 40.1394C38.9353 40.3105 38.4791 40.1394 38.308 39.7402L35.0575 31.9275C34.8864 31.5283 35.1145 31.0721 35.5137 30.901C35.9129 30.7299 36.3691 30.901 36.4832 31.3002Z" fill="#F5E423"/>
<path d="M27.1777 107.731C24.883 107.731 22.9707 109.644 22.9707 111.938C22.9707 114.233 24.883 116.145 27.1777 116.145C29.4724 116.145 31.3846 114.233 31.3846 111.938C31.289 109.644 29.4724 107.731 27.1777 107.731ZM27.1777 113.564C26.2215 113.564 25.4566 112.799 25.4566 111.843C25.4566 110.887 26.2215 110.122 27.1777 110.122C28.1338 110.122 28.8987 110.887 28.8987 111.843C28.8031 112.799 28.0382 113.564 27.1777 113.564Z" fill="#B3F50E"/>
<path d="M138.757 124.559C136.463 124.559 134.55 126.471 134.55 128.766C134.55 131.061 136.463 132.973 138.757 132.973C141.052 132.973 142.964 131.061 142.964 128.766C142.964 126.471 141.052 124.559 138.757 124.559ZM138.757 130.487C137.801 130.487 137.036 129.722 137.036 128.766C137.036 127.81 137.801 127.045 138.757 127.045C139.714 127.045 140.478 127.81 140.478 128.766C140.478 129.722 139.714 130.487 138.757 130.487Z" fill="#B3F50E"/>
<path d="M172.795 59.9251C171.074 59.9251 169.64 61.3593 169.64 63.0803C169.64 64.8014 171.074 66.2355 172.795 66.2355C174.516 66.2355 175.951 64.8014 175.951 63.0803C176.046 61.3593 174.612 59.9251 172.795 59.9251ZM172.795 64.4189C172.126 64.4189 171.457 63.8452 171.457 63.0803C171.457 62.411 172.031 61.7417 172.795 61.7417C173.465 61.7417 174.134 62.3154 174.134 63.0803C174.134 63.7496 173.56 64.4189 172.795 64.4189Z" fill="#30B353"/>
<path d="M116.671 8.86804C114.854 8.86804 113.325 10.3978 113.325 12.2145C113.325 14.0311 114.854 15.5609 116.671 15.5609C118.488 15.5609 120.017 14.0311 120.017 12.2145C120.017 10.3978 118.583 8.86804 116.671 8.86804ZM116.671 13.6487C115.906 13.6487 115.332 13.075 115.332 12.3101C115.332 11.5452 115.906 10.9715 116.671 10.9715C117.436 10.9715 118.01 11.5452 118.01 12.3101C118.01 12.9794 117.436 13.6487 116.671 13.6487Z" fill="#30B353"/>
<path d="M8.8201 87.4615C6.90785 87.4615 5.28244 89.087 5.28244 90.9992C5.28244 92.9115 6.90785 94.5369 8.8201 94.5369C10.7324 94.5369 12.3578 92.9115 12.3578 90.9992C12.3578 88.9913 10.7324 87.4615 8.8201 87.4615Z" fill="#B3F50E"/>
<path d="M151.092 99.2219C149.657 99.2219 148.51 100.369 148.51 101.803C148.51 103.238 149.657 104.385 151.092 104.385C152.526 104.385 153.673 103.238 153.673 101.803C153.673 100.369 152.526 99.2219 151.092 99.2219Z" fill="#B3F50E"/>
<path d="M65.7095 9.9198C63.606 9.9198 61.9806 11.6408 61.9806 13.6487C61.9806 15.6566 63.7016 17.3776 65.7095 17.3776C67.8129 17.3776 69.4384 15.6566 69.4384 13.6487C69.4384 11.6408 67.7173 9.9198 65.7095 9.9198Z" fill="#30B353"/>
<path d="M139.044 24.4529C137.228 24.4529 135.794 25.8871 135.794 27.7037C135.794 29.5204 137.228 30.9546 139.044 30.9546C140.861 30.9546 142.295 29.5204 142.295 27.7037C142.2 25.8871 140.765 24.4529 139.044 24.4529Z" fill="#30B353"/>
<path d="M24.7874 53.1366C25.7907 53.1366 26.604 52.3233 26.604 51.32C26.604 50.3167 25.7907 49.5034 24.7874 49.5034C23.7841 49.5034 22.9707 50.3167 22.9707 51.32C22.9707 52.3233 23.7841 53.1366 24.7874 53.1366Z" fill="#30B353"/>
<path d="M173.943 43.8622C172.222 43.8622 170.788 45.2964 170.788 47.0174C170.788 48.7385 172.222 50.1726 173.943 50.1726C175.664 50.1726 177.098 48.7385 177.098 47.0174C177.098 45.2008 175.664 43.8622 173.943 43.8622Z" fill="#30B353"/>
<path d="M7.09914 64.4189C8.20805 64.4189 9.107 63.5199 9.107 62.411C9.107 61.3021 8.20805 60.4032 7.09914 60.4032C5.99023 60.4032 5.09128 61.3021 5.09128 62.411C5.09128 63.5199 5.99023 64.4189 7.09914 64.4189Z" fill="#30B353"/>
<path d="M91.047 3.22692L92.29 1.98396C92.768 1.5059 92.768 0.83661 92.29 0.358547C91.8119 -0.119516 91.1426 -0.119516 90.6646 0.358547L89.4216 1.60151L88.1786 0.358547C87.7006 -0.119516 87.0313 -0.119516 86.5532 0.358547C86.0751 0.83661 86.0751 1.5059 86.5532 1.98396L87.8918 3.22692L86.6488 4.46988C86.1708 4.94795 86.1708 5.61724 86.6488 6.0953C87.1269 6.57336 87.7962 6.57336 88.2742 6.0953L89.4216 4.85233L90.6646 6.0953C91.1426 6.57336 91.8119 6.57336 92.29 6.0953C92.768 5.61724 92.768 4.94795 92.29 4.46988L91.047 3.22692Z" fill="#30B353"/>
<path d="M5.66484 41.1851L6.90781 39.9421C7.38587 39.464 7.38587 38.7947 6.90781 38.3167C6.42974 37.8386 5.76046 37.8386 5.28239 38.3167L4.03943 39.5596L2.79647 38.3167C2.3184 37.8386 1.64912 37.8386 1.17105 38.3167C0.692992 38.7947 0.692992 39.464 1.17105 39.9421L2.50963 41.1851L1.26667 42.428C0.788604 42.9061 0.788604 43.5754 1.26667 44.0534C1.74473 44.5315 2.41402 44.5315 2.89208 44.0534L4.13504 42.8105L5.37801 44.0534C5.85607 44.5315 6.52536 44.5315 7.00342 44.0534C7.48148 43.5754 7.48148 42.9061 7.00342 42.428L5.66484 41.1851Z" fill="#30B353"/>
<path d="M153.577 117.771L154.629 116.719C155.012 116.337 155.012 115.763 154.629 115.38C154.247 114.998 153.673 114.998 153.291 115.38L152.239 116.432L151.187 115.38C150.805 114.998 150.231 114.998 149.848 115.38C149.466 115.763 149.466 116.337 149.848 116.719L150.9 117.771L149.848 118.822C149.466 119.205 149.466 119.779 149.848 120.161C150.231 120.543 150.805 120.543 151.187 120.161L152.239 119.109L153.291 120.161C153.673 120.543 154.247 120.543 154.629 120.161C155.012 119.779 155.012 119.205 154.629 118.822L153.577 117.771Z" fill="#B3F50E"/>
</svg>
