<svg width="100" height="100" viewBox="0 0 100 100" fill="none" xmlns="http://www.w3.org/2000/svg">
<path fill-rule="evenodd" clip-rule="evenodd" d="M85.3261 85.3261C94.6972 75.9551 99.9736 63.2527 100 50C100 36.7392 94.7322 24.0215 85.3553 14.6447C75.9785 5.26784 63.2608 0 50 0C36.7392 0 24.0215 5.26784 14.6447 14.6447C5.26784 24.0215 0 36.7392 0 50V92.15C0 94.2319 0.827051 96.2286 2.29921 97.7008C3.77137 99.173 5.76805 100 7.85 100H50C55.9704 99.9881 60.722 96.2322 65.4968 92.458C71.3208 87.8545 77.1793 83.2237 85.3261 85.3261ZM24 67V58.3975L47.8075 34.6208L56.4161 43.2232L32.6025 67H24ZM51.8688 30.5657L60.4712 39.1681L67.0369 32.6025L58.4345 24L51.8688 30.5657Z" fill="#117F23"/>
<path d="M66.1586 93.0222L66.9106 93.3983C70.0443 95.2783 73.5537 96.1557 77.0633 96.1557C88.0932 96.1557 97.1177 87.1312 97.1177 76.1013C97.1177 70.8371 94.9868 65.6981 91.2268 61.9378C87.4665 58.1776 82.4528 56.0469 77.0633 56.0469C66.0333 56.0469 57.0087 65.0714 57.1341 76.2267C57.1341 79.9868 58.2622 83.6218 60.1422 86.7552L60.6435 87.5073L58.6382 94.9024L66.1586 93.0222Z" fill="#00E676"/>
<path d="M93.3569 59.9324C89.0953 55.5456 83.2043 53.1641 77.188 53.1641C64.4034 53.1641 54.1254 63.5673 54.2507 76.2266C54.2507 80.2375 55.3787 84.1232 57.2589 87.6326L54 99.54L66.158 96.4064C69.5422 98.2867 73.3023 99.1641 77.0627 99.1641C89.722 99.1641 100 88.7607 100 76.1015C100 69.9597 97.6185 64.194 93.3571 59.9324H93.3569ZM77.188 95.2786C73.8038 95.2786 70.4196 94.4013 67.5367 92.6465L66.7847 92.2705L59.5151 94.1505L61.3951 87.0062L60.8938 86.2541C55.3787 77.355 58.0109 65.5727 67.0354 60.0577C76.0599 54.5428 87.7166 57.175 93.2316 66.1995C98.7465 75.224 96.1143 86.8806 87.09 92.3957C84.207 94.2757 80.6976 95.2784 77.188 95.2784V95.2786ZM88.2179 81.3659L86.8392 80.7392C86.8392 80.7392 84.8339 79.8618 83.5804 79.2351C83.455 79.2351 83.3298 79.1096 83.2043 79.1096C82.8283 79.1096 82.5776 79.2351 82.3269 79.3605C82.3269 79.3605 82.2017 79.4857 80.4469 81.4912C80.3215 81.7418 80.0708 81.8673 79.8202 81.8673H79.6947C79.5695 81.8673 79.3188 81.7418 79.1934 81.6166L78.5667 81.3659C77.1879 80.7392 75.9346 79.987 74.9318 78.9844C74.6812 78.7337 74.3051 78.4831 74.0544 78.2324C73.177 77.355 72.2996 76.3522 71.6731 75.2241L71.5476 74.9735C71.4224 74.8481 71.4224 74.7228 71.297 74.4722C71.297 74.2215 71.297 73.9708 71.4224 73.8454C71.4224 73.8454 71.9237 73.2187 72.2996 72.8428C72.5505 72.5919 72.6757 72.216 72.9264 71.9654C73.177 71.5893 73.3024 71.088 73.177 70.7119C73.0518 70.0851 71.5476 66.701 71.1717 65.949C70.9209 65.5729 70.6704 65.4477 70.2943 65.3222H68.9156C68.6648 65.3222 68.4143 65.4477 68.1635 65.4477L68.038 65.5729C67.7874 65.6983 67.5367 65.949 67.2861 66.0742C67.0354 66.3251 66.91 66.5755 66.6593 66.8264C65.7819 67.9544 65.2806 69.3332 65.2806 70.7119C65.2806 71.7145 65.5313 72.7174 65.9073 73.5948L66.0328 73.9708C67.1608 76.3522 68.6648 78.4831 70.6704 80.3631L71.1717 80.8644C71.5476 81.2405 71.9237 81.4912 72.1744 81.8671C74.8066 84.1234 77.8147 85.7528 81.1989 86.6302C81.575 86.7554 82.0763 86.7554 82.4524 86.8808H83.7057C84.3324 86.8808 85.0844 86.6302 85.5859 86.3795C85.9618 86.1288 86.2124 86.1288 86.4631 85.8782L86.7139 85.6273C86.9646 85.3767 87.2153 85.2514 87.4659 85.0008C87.7166 84.7501 87.9672 84.4995 88.0927 84.2486C88.3433 83.7473 88.4686 83.1206 88.594 82.494V81.6166C88.594 81.6166 88.4686 81.4912 88.2179 81.3659V81.3659Z" fill="white"/>
</svg>
