<svg width="261" height="286" viewBox="0 0 261 286" fill="none" xmlns="http://www.w3.org/2000/svg">
<path d="M233.434 220.36C217.688 245.078 192.588 269.413 152.887 285.447C151.169 286.115 149.356 284.492 150.024 282.679C152.792 274.662 154.891 266.264 156.132 257.675C147.734 259.393 138.954 260.252 130.078 260.252C116.335 260.252 103.07 258.152 90.6634 254.144C50.5806 241.451 18.8007 209.671 6.10785 169.588C2.19501 157.182 0 143.916 0 130.174C0 121.203 0.858917 112.518 2.57675 104.12C8.78004 73.3897 25.8629 46.5724 49.6263 27.8671C71.8627 10.4024 99.7298 0 130.078 0C201.941 0 260.252 58.2154 260.252 130.174C260.252 130.078 261.97 175.792 233.434 220.36Z" fill="url(#paint0_linear_1374_32)"/>
<path d="M216.065 58.9795C231.719 58.9795 244.409 46.2894 244.409 30.6353C244.409 14.9812 231.719 2.29102 216.065 2.29102C200.411 2.29102 187.721 14.9812 187.721 30.6353C187.721 46.2894 200.411 58.9795 216.065 58.9795Z" fill="#FF4B4B"/>
<path d="M137.14 58.5977L187.339 69.0001L175.219 81.1204C176.364 82.2656 177.796 83.888 179.227 85.4149C180.659 86.9419 181.995 88.4689 183.14 90.1867C184.285 91.9045 185.622 93.4315 186.671 95.2448L189.821 100.589L192.397 106.22C192.875 107.174 193.161 108.129 193.543 109.083L194.783 112.614C195.356 114.045 195.642 115.572 196.024 117.004C197.646 122.921 198.124 129.029 198.219 135.137L198.028 139.718L197.933 142.008L197.646 144.298L196.978 148.879L195.929 153.365C190.012 177.128 171.402 197.265 148.116 204.9C136.568 208.908 123.97 209.767 111.946 207.763C99.8253 205.854 88.3731 200.51 78.7342 193.066C76.3483 191.253 74.2487 189.153 72.0537 187.244L87.6096 171.688C89.232 173.024 90.6636 174.551 92.286 175.792C99.0619 181.041 107.078 184.763 115.572 186.099C124.066 187.435 132.941 186.958 140.958 184.095L144.012 183.045L146.875 181.709C148.879 180.946 150.597 179.609 152.506 178.56C154.223 177.319 156.037 176.078 157.659 174.742C159.186 173.215 160.904 171.975 162.335 170.257C168.157 163.958 172.547 156.323 174.551 147.925L175.315 144.776L175.792 141.531L176.078 139.908L176.173 138.286L176.364 135.041C176.173 130.747 175.887 126.452 174.742 122.253C174.456 121.203 174.36 120.153 173.883 119.199L173.024 116.718C172.738 116.05 172.642 115.286 172.261 114.714L170.447 110.801L168.252 107.079C167.584 105.838 166.535 104.693 165.771 103.548C165.008 102.307 163.958 101.257 163.003 100.207C162.049 99.1576 161.19 98.1078 159.854 96.7717L147.447 108.797L137.14 58.5977Z" fill="white"/>
<path d="M124.543 211.962C120.153 211.962 115.763 211.58 111.277 210.817C99.0617 208.908 87.0369 203.564 76.539 195.452C74.8212 194.116 73.2942 192.684 71.7673 191.348C71.0992 190.68 70.4312 190.107 69.6677 189.439C68.9996 188.867 68.5225 188.008 68.5225 187.053C68.5225 186.099 68.8088 185.24 69.4768 184.572L85.0327 169.016C86.2734 167.775 88.1821 167.68 89.5182 168.825C90.2817 169.398 90.9497 170.066 91.5223 170.638C92.3813 171.402 93.2402 172.165 94.0036 172.833C100.78 177.987 108.223 181.327 115.763 182.568C124.066 183.904 132.369 183.236 139.526 180.755L142.389 179.705L145.157 178.464C145.252 178.464 145.252 178.369 145.348 178.369C146.302 177.987 147.256 177.414 148.306 176.746C148.974 176.365 149.642 175.887 150.406 175.506L151.074 175.028C152.505 173.979 153.842 173.024 155.082 171.975C155.559 171.497 156.132 171.02 156.705 170.543C157.659 169.684 158.613 168.825 159.377 167.966C159.377 167.871 159.472 167.871 159.472 167.775C165.103 161.668 169.111 154.414 170.924 146.875L171.688 143.917L172.356 139.431L172.547 134.85C172.356 130.365 172.07 126.643 171.115 123.016C171.02 122.635 170.924 122.253 170.829 121.871C170.734 121.298 170.543 120.726 170.447 120.344C170.447 120.249 170.352 120.153 170.352 120.153L169.493 117.672C169.397 117.481 169.302 117.195 169.302 117.004C169.207 116.622 169.111 116.336 169.016 116.145C169.016 116.05 168.92 116.05 168.92 115.954L167.202 112.137L165.103 108.51C165.103 108.51 165.103 108.415 165.007 108.415C164.721 107.842 164.244 107.27 163.767 106.601C163.385 106.124 163.003 105.647 162.717 105.17C162.144 104.216 161.285 103.357 160.522 102.498L160.331 102.211C160.045 101.925 159.758 101.639 159.568 101.353L149.833 111.087C148.974 111.946 147.638 112.232 146.493 111.946C145.348 111.564 144.393 110.61 144.203 109.465L133.8 59.1702C133.609 58.025 133.896 56.8798 134.754 56.1163C135.518 55.3528 136.663 54.9711 137.808 55.1619L188.007 65.5643C189.248 65.8507 190.202 66.7096 190.489 67.8548C190.87 69 190.489 70.3361 189.63 71.195L179.895 81.1203C180.372 81.5975 180.754 82.0746 181.231 82.6472L181.613 83.1244C183.14 84.7468 184.572 86.3692 185.812 88.1825C186.194 88.6597 186.576 89.2323 186.958 89.7095C187.816 90.8547 188.771 92.0953 189.534 93.4314L192.684 98.6804C192.779 98.7758 192.779 98.8712 192.874 98.9667L195.451 104.597C195.833 105.265 196.119 106.029 196.31 106.697C196.406 106.983 196.501 107.27 196.692 107.556V107.651L197.933 111.182C198.41 112.328 198.696 113.473 198.887 114.618C198.982 115.095 199.078 115.477 199.173 115.954C200.605 121.298 201.368 127.12 201.559 134.85C201.559 134.946 201.559 135.041 201.559 135.041L201.177 141.912C201.177 142.008 201.177 142.103 201.177 142.199L200.223 149.07C200.223 149.166 200.223 149.261 200.128 149.356L199.078 153.842C192.874 178.75 173.215 199.842 148.974 207.763C141.34 210.626 133.037 211.962 124.543 211.962ZM76.8253 186.862C78.1614 188.008 79.3066 189.153 80.6427 190.203C90.2817 197.647 101.257 202.514 112.327 204.327C124.257 206.331 136.186 205.377 146.875 201.655C169.016 194.402 186.958 175.124 192.588 152.41L193.638 148.116L194.592 141.626L194.688 139.431L194.879 135.041C194.688 127.884 194.02 122.635 192.779 117.767C192.684 117.29 192.493 116.813 192.397 116.24C192.206 115.286 191.92 114.427 191.634 113.664V113.568L190.393 110.037C190.298 109.655 190.107 109.369 190.011 108.987C189.821 108.415 189.63 107.938 189.439 107.46L186.862 101.925L183.808 96.7716C183.236 95.7219 182.472 94.7675 181.709 93.7177C181.231 93.1451 180.85 92.5725 180.468 91.9999C179.418 90.4729 178.177 89.0414 176.841 87.6099L176.364 87.1327C175.219 85.7966 173.978 84.4605 173.024 83.5062C172.356 82.8381 171.974 82.0746 171.974 81.1203C171.974 80.2614 172.356 79.307 172.929 78.7344L180.659 71.0042L141.435 62.8922L149.547 102.116L157.277 94.3858C158.518 93.1451 160.617 93.0497 161.953 94.2903C163.003 95.3401 163.862 96.199 164.53 97.058C164.817 97.3443 165.007 97.6306 165.294 97.9169L165.485 98.2032C166.439 99.253 167.489 100.398 168.348 101.734C168.634 102.116 168.92 102.498 169.207 102.88C169.779 103.643 170.447 104.502 171.02 105.456L173.215 109.083C173.31 109.178 173.31 109.274 173.406 109.369L175.219 113.187C175.601 113.855 175.792 114.523 175.982 115.095C176.078 115.286 176.078 115.477 176.173 115.572L177.032 117.958C177.414 118.913 177.605 119.772 177.796 120.535C177.891 120.821 177.891 121.108 177.987 121.394C179.227 125.879 179.514 130.556 179.704 134.85C179.704 134.946 179.704 135.041 179.704 135.137L179.514 140.004C179.514 140.099 179.514 140.29 179.514 140.386L178.846 145.157C178.846 145.253 178.846 145.348 178.75 145.444L177.987 148.593C175.887 157.182 171.402 165.39 165.007 172.356C163.958 173.692 162.812 174.647 161.667 175.697C161.19 176.174 160.617 176.555 160.14 177.033C160.045 177.128 160.045 177.128 159.949 177.223C158.422 178.464 156.895 179.609 155.368 180.659L154.605 181.232C154.51 181.327 154.319 181.423 154.223 181.518C153.555 181.804 152.983 182.282 152.315 182.663C151.074 183.427 149.833 184.19 148.402 184.763L145.634 186.099C145.539 186.099 145.443 186.194 145.348 186.194L142.294 187.244C133.991 190.203 124.638 190.966 115.19 189.439C106.601 188.103 98.0119 184.286 90.3771 178.464C89.4228 177.796 88.6593 177.033 87.8004 176.269L76.8253 186.862Z" fill="white"/>
<defs>
<linearGradient id="paint0_linear_1374_32" x1="130.134" y1="285.538" x2="130.134" y2="-0.0121183" gradientUnits="userSpaceOnUse">
<stop stop-color="#20B038"/>
<stop offset="1" stop-color="#60D66A"/>
</linearGradient>
</defs>
</svg>
