<svg width="395" height="34" viewBox="0 0 395 34" fill="none" xmlns="http://www.w3.org/2000/svg">
<path d="M118.242 7.01458V26.2188H125.442C131.191 26.2188 134.478 22.692 134.478 16.5302C134.478 10.5014 131.151 7.01458 125.442 7.01458H118.242ZM121.676 9.90252H124.99C128.756 9.90252 130.978 12.3513 130.978 16.5834C130.978 20.9087 128.809 23.3308 124.99 23.3308H121.676V9.90252ZM147.561 22.2395C147.082 23.3308 145.95 23.943 144.313 23.943C142.144 23.943 140.747 22.3992 140.667 19.9371V19.7641H150.835V18.7128C150.835 14.1479 148.346 11.3931 144.194 11.3931C139.975 11.3931 137.353 14.3343 137.353 19.0055C137.353 23.6635 139.935 26.5115 144.22 26.5115C147.654 26.5115 150.089 24.8613 150.688 22.2395H147.561ZM144.18 13.9616C146.163 13.9616 147.468 15.359 147.534 17.5682H140.68C140.827 15.3856 142.211 13.9616 144.18 13.9616ZM158.154 26.4583C160.057 26.4583 161.654 25.6332 162.466 24.2225H162.693V26.2188H165.873V16.2773C165.873 13.203 163.771 11.3931 160.031 11.3931C156.571 11.3931 154.162 13.0167 153.896 15.5586H157.01C157.316 14.5605 158.354 14.0149 159.871 14.0149C161.654 14.0149 162.613 14.8267 162.613 16.2773V17.5283L158.86 17.7545C155.32 17.9542 153.337 19.4846 153.337 22.0931C153.337 24.7548 155.346 26.4583 158.154 26.4583ZM159.126 23.9164C157.662 23.9164 156.611 23.1844 156.611 21.9334C156.611 20.7223 157.476 20.0436 159.325 19.9238L162.613 19.6976V20.882C162.613 22.6121 161.122 23.9164 159.126 23.9164ZM169.986 26.2188H173.286V6.04306H169.986V26.2188ZM194.22 22.2395C193.741 23.3308 192.61 23.943 190.973 23.943C188.804 23.943 187.406 22.3992 187.327 19.9371V19.7641H197.494V18.7128C197.494 14.1479 195.006 11.3931 190.853 11.3931C186.635 11.3931 184.013 14.3343 184.013 19.0055C184.013 23.6635 186.595 26.5115 190.88 26.5115C194.314 26.5115 196.749 24.8613 197.348 22.2395H194.22ZM190.84 13.9616C192.823 13.9616 194.127 15.359 194.194 17.5682H187.34C187.486 15.3856 188.87 13.9616 190.84 13.9616ZM200.808 26.2188H204.109V17.7412C204.109 15.5586 205.346 14.1879 207.316 14.1879C209.326 14.1879 210.257 15.3191 210.257 17.5815V26.2188H213.558V16.8096C213.558 13.3494 211.788 11.3931 208.54 11.3931C206.371 11.3931 204.907 12.3779 204.215 14.0015H203.989V11.6726H200.808V26.2188ZM222.74 26.4583C224.763 26.4583 226.44 25.5134 227.265 23.9164H227.492V26.2188H230.686V6.04306H227.385V13.9882H227.159C226.387 12.3912 224.737 11.433 222.74 11.433C219.067 11.433 216.752 14.3343 216.752 18.939C216.752 23.557 219.054 26.4583 222.74 26.4583ZM223.765 14.1879C226.028 14.1879 227.425 16.0111 227.425 18.9523C227.425 21.9068 226.041 23.7168 223.765 23.7168C221.503 23.7168 220.132 21.9334 220.132 18.9523C220.132 15.9845 221.516 14.1879 223.765 14.1879ZM234.519 15.8248C234.519 18.0074 235.836 19.285 238.631 19.9238L241.213 20.5227C242.597 20.8421 243.222 21.3745 243.222 22.1996C243.222 23.3042 242.064 24.0628 240.401 24.0628C238.751 24.0628 237.726 23.3973 237.406 22.3194H234.146C234.399 24.9411 236.688 26.5115 240.321 26.5115C243.954 26.5115 246.523 24.6617 246.523 21.8802C246.523 19.7375 245.232 18.5531 242.45 17.9142L239.882 17.342C238.418 16.996 237.726 16.4769 237.726 15.6518C237.726 14.5738 238.857 13.8418 240.361 13.8418C241.905 13.8418 242.876 14.5073 243.116 15.532H246.217C245.977 12.9102 243.808 11.3931 240.348 11.3931C236.914 11.3931 234.519 13.2163 234.519 15.8248ZM258.807 9.2371C259.898 9.2371 260.789 8.37205 260.789 7.28075C260.789 6.20276 259.898 5.3244 258.807 5.3244C257.729 5.3244 256.837 6.20276 256.837 7.28075C256.837 8.37205 257.729 9.2371 258.807 9.2371ZM257.17 26.2188H260.457V11.6726H257.17V26.2188ZM264.556 26.2188H267.856V17.7412C267.856 15.5586 269.094 14.1879 271.064 14.1879C273.073 14.1879 274.005 15.3191 274.005 17.5815V26.2188H277.305V16.8096C277.305 13.3494 275.535 11.3931 272.288 11.3931C270.119 11.3931 268.655 12.3779 267.963 14.0015H267.737V11.6726H264.556V26.2188Z" fill="#00301E"/>
<line x1="0.0800781" y1="19.7412" x2="102.921" y2="19.7412" stroke="#00301E" stroke-width="1.70349"/>
<line x1="292.11" y1="19.741" x2="394.951" y2="19.741" stroke="#00301E" stroke-width="1.70349"/>
</svg>
