<svg width="177" height="46" viewBox="0 0 177 46" fill="none" xmlns="http://www.w3.org/2000/svg">
<path d="M37.9998 35.0009H40.7186C41.5891 35.0009 42.4238 34.6584 43.039 34.049C43.6542 33.4396 44 32.613 44 31.7508V12.2501C44 11.3883 43.6543 10.5616 43.039 9.95222C42.4238 9.34247 41.5891 9.00003 40.7186 9.00003H12.2803C11.4101 9.00003 10.5755 9.34246 9.95987 9.95222C9.34461 10.5616 8.99889 11.3883 8.99889 12.2501V15.0002H33.9997C36.2089 15.0002 37.9998 16.7911 37.9998 19.0003V26.4879L38.0009 26.4886C38.0009 26.4886 37.9999 27.4102 37.9998 28.0006C37.9998 28.1356 37.9998 28.2112 37.9998 28.3461C37.9998 30.945 37.9998 35.0009 37.9998 35.0009Z" fill="#2E82FE"/>
<path fill-rule="evenodd" clip-rule="evenodd" d="M3.28125 43.8011H31.7196C32.5901 43.8011 33.4247 43.4587 34.04 42.8489C34.6553 42.2396 35.001 41.4129 35.001 40.551V21.0504C35.001 20.1882 34.6552 19.3615 34.04 18.7521C33.4248 18.1427 32.5901 17.8003 31.7196 17.8003H3.28125C2.41113 17.8003 1.57647 18.1427 0.960848 18.7521C0.345589 19.3615 -0.000130302 20.1882 -0.000130302 21.0504V40.551C-0.000130302 41.4128 0.345589 42.2395 0.960848 42.8489C1.57643 43.4587 2.41111 43.8011 3.28125 43.8011ZM28.362 23.579C29.2206 23.0424 30.3517 23.3034 30.8884 24.162C31.4251 25.0207 31.164 26.1518 30.3054 26.6885L18.5717 34.022C17.9772 34.3936 17.2228 34.3936 16.6283 34.022L4.89458 26.6885C4.03594 26.1518 3.77491 25.0207 4.31157 24.162C4.84822 23.3034 5.97933 23.0424 6.83798 23.579L17.6 30.3053L28.362 23.579Z" fill="#2E82FE"/>
<path d="M56 14.2148H58.9763L59.9997 10.9287H64.788L65.8114 14.2148H68.7877L64.0651 0.666611H60.732L56 14.2148ZM62.3657 3.2955H62.422L64.1308 8.80678H60.6569L62.3657 3.2955Z" fill="#2E82FE"/>
<path d="M74.3598 14.4213C77.045 14.4213 78.782 12.7501 78.9134 10.5531V10.4968H76.3596L76.3502 10.5813C76.1625 11.5953 75.4771 12.2713 74.3786 12.2713C73.0266 12.2713 72.1816 11.154 72.1816 9.18234V9.17295C72.1816 7.24822 73.0266 6.09339 74.3692 6.09339C75.5052 6.09339 76.1718 6.82572 76.3408 7.78339L76.3596 7.86789H78.904V7.80217C78.8007 5.62395 77.0638 3.94333 74.3316 3.94333C71.3178 3.94333 69.3931 5.94317 69.3931 9.16356V9.17295C69.3931 12.4215 71.2896 14.4213 74.3598 14.4213Z" fill="#2E82FE"/>
<path d="M84.4292 14.4213C85.0019 14.4213 85.4432 14.365 85.753 14.3181V12.3088C85.584 12.3276 85.4056 12.3558 85.1615 12.3558C84.3353 12.3558 83.9128 12.0366 83.9128 11.0977V6.21545H85.753V4.14989H83.9128V1.69H81.1431V4.14989H79.7441V6.21545H81.1431V11.3981C81.1431 13.5576 82.1946 14.4213 84.4292 14.4213Z" fill="#2E82FE"/>
<path d="M88.884 2.85422C89.7102 2.85422 90.3487 2.20639 90.3487 1.42711C90.3487 0.647834 89.7102 0 88.884 0C88.0578 0 87.4194 0.647834 87.4194 1.42711C87.4194 2.20639 88.0578 2.85422 88.884 2.85422ZM87.5132 14.2148H90.2548V4.14989H87.5132V14.2148Z" fill="#2E82FE"/>
<path d="M94.9444 14.2148H98.0333L101.488 4.14989H98.6248L96.5499 11.7924H96.4935L94.3904 4.14989H91.4611L94.9444 14.2148Z" fill="#2E82FE"/>
<path d="M105.389 14.3744C106.713 14.3744 107.783 13.7453 108.356 12.7126H108.413V14.2148H111.154V7.31395C111.154 5.28594 109.473 3.94333 106.873 3.94333C104.216 3.94333 102.62 5.27656 102.469 7.13556L102.46 7.24822H104.967L104.986 7.16372C105.117 6.51589 105.737 6.03706 106.76 6.03706C107.83 6.03706 108.413 6.591 108.413 7.48295V8.10261L105.924 8.25283C103.427 8.41245 102.009 9.48278 102.009 11.3136V11.3324C102.009 13.1069 103.371 14.3744 105.389 14.3744ZM104.723 11.1916V11.1728C104.723 10.4592 105.277 10.0086 106.338 9.94284L108.413 9.81139V10.5343C108.413 11.5859 107.511 12.3746 106.281 12.3746C105.333 12.3746 104.723 11.9333 104.723 11.1916Z" fill="#2E82FE"/>
<path d="M117.121 14.4213C117.693 14.4213 118.135 14.365 118.444 14.3181V12.3088C118.275 12.3276 118.097 12.3558 117.853 12.3558C117.027 12.3558 116.604 12.0366 116.604 11.0977V6.21545H118.444V4.14989H116.604V1.69H113.834V4.14989H112.435V6.21545H113.834V11.3981C113.834 13.5576 114.886 14.4213 117.121 14.4213Z" fill="#2E82FE"/>
<path d="M124.58 14.4213C127.453 14.4213 128.842 12.7219 129.152 11.2385L129.18 11.1352H126.664L126.645 11.1916C126.448 11.7549 125.763 12.3746 124.636 12.3746C123.237 12.3746 122.364 11.4357 122.336 9.83017H129.265V8.98517C129.265 5.94317 127.415 3.94333 124.467 3.94333C121.519 3.94333 119.632 5.99011 119.632 9.19172V9.20111C119.632 12.4215 121.5 14.4213 124.58 14.4213ZM124.514 5.99011C125.65 5.99011 126.467 6.71306 126.636 8.10261H122.364C122.542 6.74122 123.387 5.99011 124.514 5.99011Z" fill="#2E82FE"/>
<path d="M62.3209 45.473H66.8244L70.8852 30.7107H70.9768L75.0223 45.473H79.5258L85.3727 23.444H80.5944L77.0985 39.2292H77.0069L72.9461 23.444H68.9006L64.8398 39.2292H64.7482L61.2675 23.444H56.4893L62.3209 45.473Z" fill="#2E82FE"/>
<path d="M87.8611 45.473H92.4714V38.5269H96.7154C101.356 38.5269 104.455 35.5348 104.455 31.0007V30.9702C104.455 26.4362 101.356 23.444 96.7154 23.444H87.8611V45.473ZM95.5857 27.0926C98.2268 27.0926 99.7839 28.4818 99.7839 30.9855V31.016C99.7839 33.5197 98.2268 34.9241 95.5857 34.9241H92.4714V27.0926H95.5857Z" fill="#2E82FE"/>
<path d="M121.431 45.8547C126.988 45.8547 130.316 43.1678 130.316 38.9391V38.9238C130.316 35.4584 128.24 33.5807 123.63 32.6648L121.294 32.1915C118.76 31.6877 117.63 30.8786 117.63 29.4894V29.4741C117.63 27.9017 119.05 26.8178 121.416 26.8026C123.691 26.8026 125.278 27.8559 125.507 29.581L125.523 29.7642H129.873L129.858 29.4741C129.644 25.6118 126.515 23.0624 121.416 23.0624C116.531 23.0624 113.02 25.7187 113.02 29.7489V29.7642C113.02 33.0769 115.218 35.1531 119.569 36.0233L121.889 36.4813C124.622 37.0461 125.706 37.7942 125.706 39.2902V39.3055C125.706 40.9848 124.103 42.0992 121.553 42.0992C119.034 42.0992 117.218 41.0306 116.928 39.3208L116.897 39.1528H112.546L112.562 39.3971C112.821 43.4579 116.195 45.8547 121.431 45.8547Z" fill="#2E82FE"/>
<path d="M133.14 45.473H137.247V30.5733H137.369L143.323 45.473H146.223L152.162 30.5733H152.299V45.473H156.406V23.444H151.078L144.819 39.275H144.727L138.468 23.444H133.14V45.473Z" fill="#2E82FE"/>
<path d="M168.115 45.8547C173.672 45.8547 177 43.1678 177 38.9391V38.9238C177 35.4584 174.924 33.5807 170.313 32.6648L167.978 32.1915C165.443 31.6877 164.314 30.8786 164.314 29.4894V29.4741C164.314 27.9017 165.733 26.8178 168.1 26.8026C170.374 26.8026 171.962 27.8559 172.191 29.581L172.206 29.7642H176.557L176.542 29.4741C176.328 25.6118 173.199 23.0624 168.1 23.0624C163.215 23.0624 159.703 25.7187 159.703 29.7489V29.7642C159.703 33.0769 161.902 35.1531 166.252 36.0233L168.573 36.4813C171.306 37.0461 172.389 37.7942 172.389 39.2902V39.3055C172.389 40.9848 170.786 42.0992 168.237 42.0992C165.718 42.0992 163.901 41.0306 163.611 39.3208L163.581 39.1528H159.23L159.245 39.3971C159.505 43.4579 162.879 45.8547 168.115 45.8547Z" fill="#2E82FE"/>
</svg>
