<svg width="150" height="59" viewBox="0 0 150 59" fill="none" xmlns="http://www.w3.org/2000/svg">
<rect width="150" height="58.2451" rx="7.24536" fill="#4FCC5D" fill-opacity="0.12"/>
<g clip-path="url(#clip0_3055_19086)">
<path d="M51.5869 38.9221C49.5924 42.0531 46.4131 45.1355 41.3843 47.1665C41.1667 47.2511 40.937 47.0455 41.0217 46.8159C41.3723 45.8004 41.6381 44.7366 41.7953 43.6487C40.7316 43.8663 39.6194 43.9751 38.4951 43.9751C36.7544 43.9751 35.0741 43.7091 33.5026 43.2014C28.4254 41.5936 24.4 37.5682 22.7922 32.491C22.2966 30.9195 22.0186 29.2392 22.0186 27.4985C22.0186 26.3622 22.1274 25.2621 22.3449 24.1983C23.1307 20.3058 25.2945 16.909 28.3046 14.5396C31.1212 12.3274 34.651 11.0098 38.4951 11.0098C47.5978 11.0098 54.9839 18.3837 54.9839 27.4985C54.9839 27.4864 55.2015 33.2768 51.5869 38.9221Z" fill="url(#paint0_linear_3055_19086)"/>
<path d="M49.3881 18.4804C51.371 18.4804 52.9784 16.8729 52.9784 14.8901C52.9784 12.9072 51.371 11.2998 49.3881 11.2998C47.4053 11.2998 45.7979 12.9072 45.7979 14.8901C45.7979 16.8729 47.4053 18.4804 49.3881 18.4804Z" fill="#FF4B4B"/>
<path d="M39.3908 18.4321L45.7493 19.7498L44.2141 21.285C44.3592 21.4301 44.5405 21.6356 44.7218 21.829C44.9032 22.0224 45.0724 22.2158 45.2175 22.4334C45.3625 22.651 45.5318 22.8444 45.6647 23.0741L46.0637 23.751L46.39 24.4643C46.4506 24.5851 46.4868 24.7061 46.5352 24.827L46.6922 25.2742C46.7648 25.4555 46.801 25.6489 46.8494 25.8303C47.0549 26.5798 47.1154 27.3535 47.1275 28.1271L47.1033 28.7074L47.0912 28.9975L47.0549 29.2875L46.9703 29.8678L46.8374 30.436C46.0879 33.446 43.7306 35.9967 40.7811 36.9638C39.3183 37.4715 37.7226 37.5803 36.1995 37.3265C34.6642 37.0846 33.2136 36.4077 31.9927 35.4648C31.6905 35.2352 31.4245 34.9692 31.1465 34.7274L33.1169 32.7569C33.3224 32.9262 33.5037 33.1196 33.7092 33.2768C34.5675 33.9417 35.5829 34.4131 36.6588 34.5823C37.7347 34.7516 38.8589 34.6911 39.8744 34.3285L40.2612 34.1955L40.6239 34.0263C40.8777 33.9296 41.0953 33.7603 41.3371 33.6274C41.5546 33.4702 41.7844 33.313 41.9899 33.1438C42.1833 32.9504 42.4009 32.7933 42.5821 32.5757C43.3196 31.7778 43.8757 30.8107 44.1295 29.747L44.2263 29.3481L44.2867 28.937L44.3229 28.7315L44.335 28.526L44.3592 28.115C44.335 27.5711 44.2987 27.027 44.1537 26.4952C44.1175 26.3622 44.1053 26.2292 44.0449 26.1083L43.9361 25.7941C43.8999 25.7094 43.8877 25.6127 43.8394 25.5402L43.6097 25.0446L43.3316 24.5731C43.247 24.4159 43.1141 24.2709 43.0174 24.1258C42.9207 23.9687 42.7877 23.8357 42.6668 23.7027C42.5459 23.5697 42.4371 23.4368 42.2679 23.2675L40.6963 24.7907L39.3908 18.4321Z" fill="white"/>
<path d="M37.7952 37.8583C37.2391 37.8583 36.683 37.8099 36.1148 37.7133C34.5675 37.4714 33.0444 36.7945 31.7146 35.767C31.4971 35.5978 31.3036 35.4164 31.1102 35.2472C31.0256 35.1626 30.941 35.09 30.8443 35.0054C30.7597 34.9329 30.6992 34.8241 30.6992 34.7031C30.6992 34.5823 30.7355 34.4735 30.8201 34.3889L32.7905 32.4184C32.9477 32.2612 33.1894 32.2492 33.3587 32.3942C33.4554 32.4668 33.54 32.5514 33.6125 32.6239C33.7213 32.7207 33.8301 32.8173 33.9268 32.9019C34.7852 33.5548 35.728 33.9778 36.683 34.135C37.7347 34.3043 38.7865 34.2196 39.693 33.9054L40.0557 33.7724L40.4063 33.6152C40.4183 33.6152 40.4183 33.6032 40.4305 33.6032C40.5513 33.5548 40.6722 33.4822 40.8052 33.3976C40.8898 33.3493 40.9744 33.2888 41.0712 33.2405L41.1558 33.18C41.337 33.0471 41.5064 32.9261 41.6635 32.7933C41.7239 32.7327 41.7965 32.6723 41.869 32.6119C41.9899 32.5031 42.1107 32.3942 42.2075 32.2854C42.2075 32.2734 42.2195 32.2734 42.2195 32.2612C42.9328 31.4877 43.4405 30.5688 43.6701 29.6139L43.7669 29.2392L43.8515 28.671L43.8757 28.0907C43.8515 27.5226 43.8153 27.0512 43.6943 26.5918C43.6823 26.5435 43.6701 26.4951 43.6581 26.4467C43.646 26.3741 43.6219 26.3017 43.6097 26.2533C43.6097 26.2413 43.5977 26.2291 43.5977 26.2291L43.4889 25.9148C43.4767 25.8907 43.4647 25.8544 43.4647 25.8302C43.4526 25.7818 43.4405 25.7456 43.4284 25.7214C43.4284 25.7094 43.4163 25.7094 43.4163 25.6972L43.1987 25.2137L42.9328 24.7543C42.9328 24.7543 42.9328 24.7423 42.9206 24.7423C42.8844 24.6697 42.824 24.5973 42.7636 24.5125C42.7152 24.4521 42.6668 24.3917 42.6306 24.3313C42.558 24.2104 42.4492 24.1016 42.3525 23.9928L42.3283 23.9565C42.2921 23.9202 42.2557 23.884 42.2317 23.8478L40.9986 25.0807C40.8898 25.1896 40.7205 25.2258 40.5755 25.1896C40.4305 25.1412 40.3095 25.0203 40.2854 24.8753L38.9677 18.5046C38.9435 18.3595 38.9799 18.2145 39.0886 18.1178C39.1853 18.0211 39.3304 17.9727 39.4754 17.9969L45.834 19.3145C45.9912 19.3508 46.112 19.4596 46.1484 19.6047C46.1966 19.7497 46.1484 19.919 46.0395 20.0277L44.8064 21.285C44.8669 21.3454 44.9152 21.4058 44.9757 21.4784L45.0241 21.5388C45.2175 21.7443 45.3989 21.9498 45.5559 22.1795C45.6043 22.2399 45.6527 22.3125 45.7011 22.3729C45.8098 22.518 45.9307 22.6751 46.0274 22.8444L46.4264 23.5092C46.4384 23.5213 46.4384 23.5334 46.4505 23.5455L46.7769 24.2587C46.8253 24.3433 46.8615 24.4401 46.8857 24.5247C46.8978 24.5609 46.9099 24.5973 46.9341 24.6335V24.6455L47.0913 25.0928C47.1517 25.2379 47.1879 25.383 47.2121 25.528C47.2241 25.5884 47.2363 25.6368 47.2483 25.6972C47.4297 26.3741 47.5264 27.1116 47.5506 28.0907C47.5506 28.1029 47.5506 28.1149 47.5506 28.1149L47.5022 28.9853C47.5022 28.9974 47.5022 29.0095 47.5022 29.0216L47.3813 29.8919C47.3813 29.9041 47.3813 29.9161 47.3693 29.9282L47.2363 30.4964C46.4505 33.6514 43.9603 36.3231 40.8898 37.3264C39.9228 37.6891 38.8711 37.8583 37.7952 37.8583ZM31.7509 34.6789C31.9201 34.8241 32.0652 34.9691 32.2344 35.1021C33.4554 36.045 34.8456 36.6615 36.2478 36.8912C37.7589 37.145 39.27 37.0242 40.6239 36.5527C43.4284 35.634 45.7011 33.1921 46.4142 30.315L46.5472 29.7711L46.6681 28.949L46.6802 28.671L46.7044 28.1149C46.6802 27.2084 46.5956 26.5435 46.4384 25.9269C46.4264 25.8665 46.4022 25.806 46.39 25.7335C46.3658 25.6126 46.3296 25.5038 46.2934 25.4072V25.395L46.1362 24.9477C46.1242 24.8994 46.1 24.8631 46.0878 24.8147C46.0637 24.7423 46.0395 24.6819 46.0154 24.6213L45.6889 23.9202L45.3021 23.2675C45.2296 23.1345 45.1329 23.0136 45.0362 22.8806C44.9757 22.8081 44.9274 22.7356 44.879 22.663C44.746 22.4696 44.5888 22.2883 44.4196 22.107L44.3592 22.0465C44.2141 21.8773 44.057 21.708 43.9361 21.5872C43.8515 21.5025 43.8031 21.4058 43.8031 21.285C43.8031 21.1762 43.8515 21.0553 43.9241 20.9827L44.9032 20.0036L39.9348 18.9761L40.9624 23.9444L41.9415 22.9653C42.0987 22.8081 42.3646 22.796 42.5338 22.9532C42.6668 23.0861 42.7756 23.1949 42.8602 23.3037C42.8966 23.34 42.9206 23.3763 42.957 23.4125L42.9812 23.4488C43.102 23.5818 43.235 23.7268 43.3438 23.896C43.38 23.9444 43.4163 23.9928 43.4526 24.0412C43.5251 24.1378 43.6097 24.2466 43.6823 24.3675L43.9603 24.8269C43.9723 24.8389 43.9723 24.8511 43.9845 24.8631L44.2141 25.3467C44.2625 25.4314 44.2867 25.516 44.3108 25.5884C44.323 25.6126 44.323 25.6368 44.335 25.6488L44.4438 25.9511C44.4922 26.072 44.5164 26.1809 44.5406 26.2775C44.5526 26.3137 44.5526 26.3501 44.5648 26.3863C44.7218 26.9544 44.7582 27.5468 44.7822 28.0907C44.7822 28.1029 44.7822 28.1149 44.7822 28.1271L44.7582 28.7436C44.7582 28.7556 44.7582 28.7798 44.7582 28.792L44.6736 29.3963C44.6736 29.4085 44.6736 29.4205 44.6614 29.4326L44.5648 29.8315C44.2988 30.9195 43.7307 31.9591 42.9206 32.8415C42.7878 33.0107 42.6426 33.1317 42.4976 33.2647C42.4371 33.3251 42.3646 33.3734 42.3041 33.4339C42.2921 33.446 42.2921 33.446 42.2799 33.458C42.0865 33.6152 41.8931 33.7602 41.6997 33.8932L41.603 33.9658C41.591 33.9778 41.5668 33.99 41.5546 34.002C41.47 34.0383 41.3976 34.0988 41.313 34.1471C41.1558 34.2438 40.9986 34.3405 40.8173 34.4131L40.4667 34.5823C40.4547 34.5823 40.4425 34.5943 40.4305 34.5943L40.0436 34.7273C38.9919 35.1021 37.8072 35.1988 36.6105 35.0054C35.5225 34.8361 34.4346 34.3526 33.4675 33.6152C33.3466 33.5306 33.2499 33.4339 33.1411 33.3372L31.7509 34.6789Z" fill="white"/>
<path d="M83.0436 25.7933C84.6932 25.7933 85.8891 24.7581 86.0214 23.307L86.0261 23.255H84.6365L84.627 23.3023C84.4427 24.1106 83.8659 24.5833 83.0436 24.5833C81.9518 24.5833 81.2522 23.6946 81.2522 22.2577V22.253C81.2522 20.8255 81.9518 19.9464 83.0436 19.9464C83.8943 19.9464 84.4522 20.4379 84.6128 21.1895L84.6318 21.2698H86.0214L86.0166 21.2273C85.8843 19.7809 84.6979 18.7363 83.0436 18.7363C81.0537 18.7363 79.7964 20.0598 79.7964 22.2577V22.2624C79.7964 24.4603 81.0489 25.7933 83.0436 25.7933Z" fill="#7D57A4"/>
<path d="M61.5703 25.6753H62.9646L64.2219 21.1045H64.2503L65.5028 25.6753H66.8973L68.7076 18.8546H67.2281L66.1456 23.742H66.1173L64.86 18.8546H63.6075L62.3502 23.742H62.3218L61.2441 18.8546H59.7646L61.5703 25.6753Z" fill="#7D57A4"/>
<path fill-rule="evenodd" clip-rule="evenodd" d="M71.1181 25.7791C72.6495 25.7791 73.6279 24.796 73.6279 23.1416V23.1321C73.6279 21.492 72.6306 20.5041 71.1133 20.5041C69.6008 20.5041 68.6082 21.5014 68.6082 23.1321V23.1416C68.6082 24.7913 69.5772 25.7791 71.1181 25.7791ZM71.1228 24.6966C70.4421 24.6966 70.012 24.1342 70.012 23.1416V23.1321C70.012 22.1537 70.4469 21.5865 71.1133 21.5865C71.7845 21.5865 72.2242 22.1537 72.2242 23.1321V23.1416C72.2242 24.1294 71.794 24.6966 71.1228 24.6966Z" fill="#7D57A4"/>
<path fill-rule="evenodd" clip-rule="evenodd" d="M79.1773 23.1416C79.1773 24.796 78.1989 25.7791 76.6674 25.7791C75.1265 25.7791 74.1576 24.7913 74.1576 23.1416V23.1321C74.1576 21.5014 75.1502 20.5041 76.6627 20.5041C78.1801 20.5041 79.1773 21.492 79.1773 23.1321V23.1416ZM75.5615 23.1416C75.5615 24.1342 75.9915 24.6966 76.6722 24.6966C77.3434 24.6966 77.7735 24.1294 77.7735 23.1416V23.1321C77.7735 22.1537 77.3339 21.5865 76.6627 21.5865C75.9963 21.5865 75.5615 22.1537 75.5615 23.1321V23.1416Z" fill="#7D57A4"/>
<path fill-rule="evenodd" clip-rule="evenodd" d="M91.6272 23.1416C91.6272 24.796 90.6488 25.7791 89.1173 25.7791C87.5764 25.7791 86.6075 24.7913 86.6075 23.1416V23.1321C86.6075 21.5014 87.6 20.5041 89.1126 20.5041C90.6298 20.5041 91.6272 21.492 91.6272 23.1321V23.1416ZM88.0112 23.1416C88.0112 24.1342 88.4414 24.6966 89.1221 24.6966C89.7933 24.6966 90.2233 24.1294 90.2233 23.1416V23.1321C90.2233 22.1537 89.7838 21.5865 89.1126 21.5865C88.4462 21.5865 88.0112 22.1537 88.0112 23.1321V23.1416Z" fill="#7D57A4"/>
<path d="M92.3413 25.6751H93.7215V22.6169C93.7215 22.045 94.076 21.648 94.6007 21.648C95.1111 21.648 95.4183 21.9694 95.4183 22.513V25.6751H96.7465V22.5933C96.7465 22.0308 97.0916 21.648 97.6162 21.648C98.1504 21.648 98.4435 21.9694 98.4435 22.5555V25.6751H99.8237V22.2104C99.8237 21.1895 99.1571 20.5041 98.1646 20.5041C97.4224 20.5041 96.8175 20.9106 96.5906 21.5487H96.5622C96.392 20.8822 95.8768 20.5041 95.1679 20.5041C94.4872 20.5041 93.9578 20.8822 93.7499 21.4589H93.7215V20.6081H92.3413V25.6751Z" fill="#7D57A4"/>
<path d="M102.078 25.6751H100.698V20.6081H102.078V21.4589H102.107C102.315 20.8822 102.844 20.5041 103.525 20.5041C104.234 20.5041 104.749 20.8822 104.919 21.5487H104.947C105.174 20.9106 105.779 20.5041 106.521 20.5041C107.514 20.5041 108.18 21.1895 108.18 22.2104V25.6751H106.8V22.5555C106.8 21.9694 106.507 21.648 105.973 21.648C105.448 21.648 105.103 22.0308 105.103 22.5933V25.6751H103.775V22.513C103.775 21.9694 103.468 21.648 102.957 21.648C102.433 21.648 102.078 22.045 102.078 22.6169V25.6751Z" fill="#7D57A4"/>
<path fill-rule="evenodd" clip-rule="evenodd" d="M111.361 25.7791C112.808 25.7791 113.507 24.9235 113.663 24.1768L113.677 24.1247H112.411L112.401 24.1531C112.302 24.4367 111.957 24.7487 111.39 24.7487C110.685 24.7487 110.246 24.276 110.232 23.4677H113.72V23.0423C113.72 21.5109 112.789 20.5041 111.305 20.5041C109.82 20.5041 108.87 21.5345 108.87 23.1463V23.1511C108.87 24.7723 109.811 25.7791 111.361 25.7791ZM111.328 21.5345C111.9 21.5345 112.311 21.8985 112.396 22.598H110.246C110.336 21.9127 110.761 21.5345 111.328 21.5345Z" fill="#7D57A4"/>
<path d="M115.814 25.6751H114.434V20.6081H115.814V21.492H115.842C115.994 20.8681 116.405 20.5041 116.996 20.5041C117.147 20.5041 117.289 20.5277 117.393 20.5561V21.7709C117.279 21.7236 117.09 21.6952 116.892 21.6952C116.211 21.6952 115.814 22.1017 115.814 22.8391V25.6751Z" fill="#7D57A4"/>
<path d="M120.105 25.7791C121.457 25.7791 122.332 24.9377 122.398 23.8316V23.8034H121.112L121.107 23.8458C121.013 24.3564 120.668 24.6966 120.115 24.6966C119.434 24.6966 119.009 24.1342 119.009 23.1416V23.1369C119.009 22.1679 119.434 21.5865 120.11 21.5865C120.682 21.5865 121.018 21.9552 121.103 22.4373L121.112 22.4799H122.393V22.4468C122.341 21.3502 121.467 20.5041 120.091 20.5041C118.574 20.5041 117.605 21.5109 117.605 23.1321V23.1369C117.605 24.7723 118.56 25.7791 120.105 25.7791Z" fill="#7D57A4"/>
<path fill-rule="evenodd" clip-rule="evenodd" d="M127.673 24.1768C127.517 24.9235 126.818 25.7791 125.371 25.7791C123.821 25.7791 122.88 24.7723 122.88 23.1511V23.1463C122.88 21.5345 123.83 20.5041 125.315 20.5041C126.799 20.5041 127.73 21.5109 127.73 23.0423V23.4677H124.242C124.256 24.276 124.695 24.7487 125.4 24.7487C125.967 24.7487 126.312 24.4367 126.411 24.1531L126.421 24.1247H127.687L127.673 24.1768ZM126.406 22.598C126.321 21.8985 125.91 21.5345 125.338 21.5345C124.771 21.5345 124.346 21.9127 124.256 22.598H126.406Z" fill="#7D57A4"/>
<path d="M62.5166 37.3156C64.1331 37.3156 65.1163 36.5262 65.1163 35.2831V35.2784C65.1163 34.2243 64.5112 33.6524 63.1026 33.3546L62.3558 33.1986C61.505 33.0143 61.1175 32.7024 61.1175 32.1919V32.1871C61.1175 31.5916 61.6564 31.1898 62.5024 31.185C63.3106 31.185 63.859 31.5679 63.9535 32.2013L63.9582 32.2675H64.9886L64.9839 32.1871C64.913 31.0433 63.9393 30.2681 62.5166 30.2681C61.075 30.2681 60.0492 31.0668 60.0445 32.2296V32.2343C60.0445 33.2459 60.692 33.8603 62.0297 34.144L62.7718 34.3C63.6745 34.4985 64.048 34.7963 64.048 35.3445V35.3493C64.048 35.9873 63.4714 36.3986 62.5591 36.3986C61.6469 36.3986 61.0182 36.0063 60.9237 35.3777L60.9142 35.3161H59.8838L59.8885 35.3871C59.9736 36.5876 60.9852 37.3156 62.5166 37.3156Z" fill="black"/>
<path d="M67.6926 37.3013C67.9005 37.3013 68.0943 37.2777 68.2125 37.2587V36.4693C68.1369 36.4788 68.0471 36.4883 67.9383 36.4883C67.5083 36.4883 67.2813 36.3371 67.2813 35.8313V33.0426H68.2125V32.2295H67.2813V30.9345H66.2368V32.2295H65.523V33.0426H66.2368V35.8927C66.2368 36.8853 66.7094 37.3013 67.6926 37.3013Z" fill="black"/>
<path fill-rule="evenodd" clip-rule="evenodd" d="M73.4308 34.7158C73.4308 36.3182 72.495 37.3014 71.0723 37.3014C69.6448 37.3014 68.7136 36.3135 68.7136 34.7158V34.7065C68.7136 33.1183 69.6542 32.1351 71.0675 32.1351C72.4855 32.1351 73.4308 33.1135 73.4308 34.7065V34.7158ZM69.7582 34.7158C69.7582 35.8172 70.2782 36.4459 71.077 36.4459C71.8757 36.4459 72.3863 35.8125 72.3863 34.7158V34.7065C72.3863 33.6193 71.8664 32.9906 71.0675 32.9906C70.2829 32.9906 69.7582 33.6193 69.7582 34.7065V34.7158Z" fill="black"/>
<path d="M76.3568 37.3014C77.5527 37.3014 78.3845 36.5357 78.4933 35.5383L78.498 35.5052H77.5148L77.5101 35.5431C77.3873 36.0819 76.9855 36.4459 76.3568 36.4459C75.5674 36.4459 75.0428 35.8077 75.0428 34.7207V34.7158C75.0428 33.6523 75.5579 32.9906 76.352 32.9906C77.0185 32.9906 77.3966 33.4019 77.5055 33.8887L77.5148 33.9266H78.4885L78.4838 33.8934C78.3987 32.9576 77.6235 32.1351 76.3426 32.1351C74.9246 32.1351 73.9982 33.1325 73.9982 34.7065V34.7112C73.9982 36.304 74.9057 37.3014 76.3568 37.3014Z" fill="black"/>
<path d="M80.2983 37.202H79.2774V30.3815H80.2983V34.3519H80.322L82.3167 32.2296H83.5172L81.4753 34.3756L83.5976 37.202H82.4111L80.7238 34.99L80.2983 35.4107V37.202Z" fill="black"/>
<path d="M86.1973 37.202H87.2467V32.1493H87.275L90.7869 37.202H91.7606V30.3815H90.7113V35.4249H90.6829L87.1758 30.3815H86.1973V37.202Z" fill="black"/>
<path fill-rule="evenodd" clip-rule="evenodd" d="M97.3949 34.7158C97.3949 36.3182 96.459 37.3014 95.0363 37.3014C93.6088 37.3014 92.6776 36.3135 92.6776 34.7158V34.7065C92.6776 33.1183 93.6182 32.1351 95.0316 32.1351C96.4495 32.1351 97.3949 33.1135 97.3949 34.7065V34.7158ZM93.7222 34.7158C93.7222 35.8172 94.2422 36.4459 95.0409 36.4459C95.8398 36.4459 96.3503 35.8125 96.3503 34.7158V34.7065C96.3503 33.6193 95.8303 32.9906 95.0316 32.9906C94.2469 32.9906 93.7222 33.6193 93.7222 34.7065V34.7158Z" fill="black"/>
<path d="M99.9283 37.3013C100.136 37.3013 100.33 37.2777 100.448 37.2587V36.4693C100.373 36.4788 100.283 36.4883 100.174 36.4883C99.744 36.4883 99.517 36.3371 99.517 35.8313V33.0426H100.448V32.2295H99.517V30.9345H98.4725V32.2295H97.7587V33.0426H98.4725V35.8927C98.4725 36.8853 98.9451 37.3013 99.9283 37.3013Z" fill="black"/>
<path d="M102.443 30.8778C102.443 31.1991 102.183 31.4639 101.847 31.4639C101.517 31.4639 101.252 31.1991 101.252 30.8778C101.252 30.5516 101.517 30.2869 101.847 30.2869C102.183 30.2869 102.443 30.5516 102.443 30.8778Z" fill="black"/>
<path d="M102.358 37.202H101.337V32.2296H102.358V37.202Z" fill="black"/>
<path d="M103.71 37.202H104.736V33.0427H105.728V32.2296H104.717V31.7191C104.717 31.2796 104.934 31.0574 105.393 31.0574C105.52 31.0574 105.648 31.0668 105.747 31.081V30.3248C105.61 30.3011 105.383 30.2822 105.175 30.2822C104.164 30.2822 103.71 30.7359 103.71 31.7003V32.2296H103.025V33.0427H103.71V37.202Z" fill="black"/>
<path d="M107.68 30.8778C107.68 31.1991 107.42 31.4639 107.085 31.4639C106.754 31.4639 106.489 31.1991 106.489 30.8778C106.489 30.5516 106.754 30.2869 107.085 30.2869C107.42 30.2869 107.68 30.5516 107.68 30.8778Z" fill="black"/>
<path d="M107.595 37.202H106.574V32.2296H107.595V37.202Z" fill="black"/>
<path fill-rule="evenodd" clip-rule="evenodd" d="M110.771 37.3014C111.977 37.3014 112.742 36.5829 112.903 35.7935L112.913 35.7416H111.944L111.929 35.7793C111.802 36.1528 111.4 36.4647 110.795 36.4647C109.982 36.4647 109.467 35.9165 109.448 34.9759H112.969V34.6308C112.969 33.1372 112.114 32.1351 110.719 32.1351C109.325 32.1351 108.427 33.1749 108.427 34.73V34.7348C108.427 36.304 109.311 37.3014 110.771 37.3014ZM110.724 32.9718C111.39 32.9718 111.873 33.3924 111.958 34.2526H109.462C109.552 33.4208 110.062 32.9718 110.724 32.9718Z" fill="black"/>
<path d="M114.784 37.2021H113.763V32.2296H114.784V33.0804H114.808C114.969 32.499 115.384 32.1351 115.952 32.1351C116.093 32.1351 116.217 32.1571 116.297 32.1713L116.306 32.1729V33.123C116.226 33.0899 116.046 33.0663 115.848 33.0663C115.191 33.0663 114.784 33.4964 114.784 34.2384V37.2021Z" fill="black"/>
</g>
<defs>
<linearGradient id="paint0_linear_3055_19086" x1="38.5022" y1="47.178" x2="38.5022" y2="11.0082" gradientUnits="userSpaceOnUse">
<stop stop-color="#20B038"/>
<stop offset="1" stop-color="#60D66A"/>
</linearGradient>
<clipPath id="clip0_3055_19086">
<rect width="105.963" height="36.2268" fill="white" transform="translate(22.0186 11.0093)"/>
</clipPath>
</defs>
</svg>
