<svg width="177" height="36" viewBox="0 0 177 36" fill="none" xmlns="http://www.w3.org/2000/svg">
<g clip-path="url(#clip0_3055_19127)">
<path d="M57.4007 0.515625C57.3414 8.74956 57.2822 16.9243 57.2229 25.1582C57.2229 26.6984 57.2822 28.0608 55.0312 28.12C53.0171 28.1793 52.1878 27.5277 52.247 25.4544C52.3063 17.9313 52.3063 10.4082 52.247 2.8851C52.247 2.11502 52.1286 1.34494 52.0693 0.574862C53.8464 0.515625 55.6236 0.515625 57.4007 0.515625Z" fill="#2E82FE"/>
<path d="M106.745 18.2274C106.745 15.7987 106.745 13.3107 106.745 10.882C106.745 9.16415 107.456 7.8017 109.292 7.92018C113.024 8.15713 116.993 6.61697 120.429 9.28263C121.08 9.81576 121.436 9.4011 121.969 9.04568C124.753 7.03162 127.833 7.50552 130.736 8.39407C133.579 9.28263 135.297 11.4744 135.357 14.5547C135.416 18.4051 135.297 22.1963 135.416 26.0467C135.475 27.9423 134.409 28.0015 132.987 28.0607C131.506 28.0607 130.558 27.883 130.558 26.0467C130.677 22.6109 130.618 19.1752 130.558 15.7395C130.499 12.8961 129.551 12.2445 126.352 12.1852C123.805 12.126 123.094 13.3107 123.213 15.621C123.331 19.0567 123.154 22.4925 123.272 25.9282C123.331 27.6461 122.621 28.12 121.021 28.0607C119.54 28.0015 118.355 28.0015 118.415 25.9282C118.533 22.4332 118.356 18.879 118.474 15.3248C118.533 12.2445 116.578 12.3037 114.387 12.126C111.839 11.9483 111.425 13.133 111.484 15.2656C111.602 18.7605 111.425 22.3148 111.543 25.869C111.602 27.5868 110.951 28.12 109.292 28.0607C107.752 28.0015 106.627 27.9423 106.686 25.869C106.804 23.3218 106.745 20.7746 106.745 18.2274Z" fill="#2E82FE"/>
<path d="M145.368 28.0013C143.887 28.0013 142.406 27.9421 140.925 28.0013C139.148 28.0606 137.963 28.0013 137.963 25.6318C137.963 23.2031 139.266 23.2031 140.925 23.2624C143.176 23.3216 145.427 23.2624 147.737 23.2624C148.981 23.2624 150.521 23.4993 150.64 21.663C150.699 19.7082 149.159 20.0043 147.915 20.0043C146.315 20.0043 144.775 20.0636 143.176 19.9451C140.095 19.7674 138.555 18.1088 138.378 14.7322C138.141 10.6449 139.325 8.45313 142.524 8.09771C146.019 7.74229 149.573 7.86076 153.128 7.80153C155.082 7.74229 154.549 9.22321 154.608 10.3487C154.668 11.415 154.786 12.5405 153.068 12.5405C150.58 12.4812 148.152 12.4812 145.664 12.5405C144.538 12.5405 142.998 12.1851 143.057 14.0214C143.117 15.7985 144.657 15.3839 145.782 15.3839C147.441 15.4431 149.159 15.3246 150.817 15.5023C154.194 15.7985 155.675 18.0495 155.438 22.3738C155.26 26.0465 153.661 27.8236 150.403 27.9421C148.744 28.0606 147.085 28.0013 145.368 28.0013Z" fill="#2E82FE"/>
<path d="M49.2848 16.6281C49.2848 18.7606 49.2848 20.9524 49.2848 23.0849C49.2848 24.7435 48.574 25.9875 47.1523 26.6983C42.9465 28.7716 38.6222 28.8309 34.3571 26.7576C32.8762 26.0467 32.0469 24.7435 32.0469 22.9664C32.0469 18.6421 32.1061 14.3771 32.0469 10.0528C32.0469 8.39413 32.6985 7.80176 34.3571 7.80176C36.0158 7.80176 36.9635 8.21642 36.9043 10.112C36.7858 12.9554 36.9043 15.7987 36.9043 18.6421C36.9043 22.6702 37.4967 23.3811 40.6362 23.4403C43.835 23.4403 44.4866 22.6702 44.4866 18.8198C44.4866 15.9765 44.5459 13.1331 44.4866 10.2897C44.4274 8.5126 45.079 7.80176 46.8561 7.80176C48.574 7.80176 49.4033 8.39413 49.2848 10.1712C49.2256 12.3038 49.2848 14.4955 49.2848 16.6281Z" fill="#2E82FE"/>
<path d="M27.4276 15.2659C27.4276 18.5239 27.4276 21.7227 27.4276 24.9808C27.4276 26.4617 27.0129 27.7649 25.5912 28.3573C23.8141 29.1274 21.9185 28.9496 20.0822 28.535C19.3713 28.4165 19.549 27.3502 19.549 26.6986C19.549 19.9456 19.549 13.1926 19.549 6.38036C19.549 4.89944 20.0229 3.53699 21.3854 3.00385C23.1625 2.23377 25.0581 2.35225 26.8944 2.82614C27.783 3.06309 27.4276 4.18859 27.4276 4.95867C27.4868 8.39442 27.4868 11.8302 27.4276 15.2659C27.4868 15.2659 27.4868 15.2659 27.4276 15.2659Z" fill="#2E82FE"/>
<path d="M67.0566 28.0609C63.0878 28.0016 62.14 27.1131 62.14 23.2627C62.14 20.8932 62.14 18.583 62.14 16.2135C62.14 14.6141 62.4954 12.8962 60.0667 12.3631C58.8819 12.1261 58.9412 8.3942 60.0667 8.09801C62.3177 7.56488 62.1992 6.14319 62.0807 4.54379C61.9623 2.70745 62.8508 2.23355 64.5687 2.17432C66.3458 2.17432 67.1159 2.82592 66.9382 4.60303C66.7605 6.43938 66.9382 7.9203 69.4261 7.86106C70.9663 7.80183 70.8478 9.16428 70.907 10.2305C70.907 11.2968 70.9663 12.6 69.4261 12.6C66.8789 12.5408 66.8789 14.1402 66.9382 15.9173C66.9974 17.5759 66.9974 19.2346 66.9382 20.8932C66.9382 22.1964 67.0566 23.3219 68.7153 23.2627C70.9663 23.2034 70.907 24.6251 70.8478 26.2245C70.7886 28.1201 69.4854 28.0609 68.1821 28.0609C67.8267 28.0609 67.4713 28.0609 67.0566 28.0609Z" fill="#2E82FE"/>
<path d="M17.6526 17.9314C17.6526 20.3008 17.6526 22.6111 17.6526 24.9806C17.6526 26.4615 17.1787 27.7647 15.757 28.3571C13.9799 29.1271 12.0843 28.9494 10.2479 28.5348C9.53709 28.3571 9.7148 27.35 9.7148 26.6984C9.7148 22.078 9.65557 17.5167 9.7148 12.8962C9.77404 9.75666 14.3945 7.5649 17.0602 9.34201C17.771 9.8159 17.5933 10.5267 17.6526 11.1784C17.7118 13.4294 17.6526 15.6804 17.6526 17.9314Z" fill="#2E82FE"/>
<path d="M73.3349 19.4712C73.3349 17.3979 73.2757 15.3247 73.3349 13.3106C73.5126 8.86783 79.5548 5.72827 83.4052 8.03851C84.6492 8.80859 84.116 10.171 84.116 11.2965C84.116 12.4813 83.1682 12.7775 82.2797 12.659C79.1401 12.3628 78.4293 13.9622 78.5478 16.7463C78.7255 19.649 78.4885 22.6108 78.607 25.5726C78.6662 27.5275 77.8962 28.1791 76.0006 28.1198C74.2235 28.1198 73.2164 27.7052 73.3349 25.6911C73.4534 23.5586 73.3349 21.5445 73.3349 19.4712Z" fill="#2E82FE"/>
<path d="M-7.05048e-05 22.7296C-7.05048e-05 22.0188 -7.05048e-05 21.3672 -7.05048e-05 20.6563C-7.05048e-05 16.2135 2.1917 14.6141 6.63447 15.6212C7.75997 15.8581 7.70073 16.569 7.75997 17.339C7.75997 20.0047 7.75997 22.6111 7.75997 25.2768C7.75997 26.817 7.04913 28.0017 5.5682 28.4164C3.85033 28.9495 2.07322 28.9495 0.355351 28.4164C-0.237018 28.2386 -7.05048e-05 27.3501 -7.05048e-05 26.817C-7.05048e-05 25.5138 -7.05048e-05 24.0921 -7.05048e-05 22.7296Z" fill="#2E82FE"/>
<path d="M177 10.2305C177 8.57185 176.349 7.86101 174.749 7.92024C171.491 7.92024 168.233 7.80177 164.975 8.03872C161.48 8.27567 159.051 10.349 158.4 13.7847C156.8 21.9594 159.881 29.0678 169.359 28.12C169.655 28.12 169.951 28.12 170.247 28.12C171.254 28.12 172.321 28.0016 172.202 29.5417C172.143 30.8449 171.55 31.5558 170.188 31.5558C167.996 31.5558 165.864 31.5558 163.672 31.5558C159.585 31.5558 159.466 31.6743 160.355 35.9986C164.679 35.9986 169.062 35.9986 173.387 35.9986C174.927 34.5769 176.941 33.5106 176.941 30.9634C176.941 23.9142 176.941 17.0427 177 10.2305ZM169.833 23.3218C165.153 23.2626 163.435 21.9594 163.317 18.109C163.198 13.3108 166.989 10.8229 171.432 12.6592C172.321 13.0146 172.261 13.6662 172.261 14.3178C172.261 15.5618 172.261 16.865 172.261 18.1682C172.261 18.3459 172.321 18.5829 172.261 18.7606C171.669 20.36 173.92 23.3811 169.833 23.3218Z" fill="#2E82FE"/>
<path d="M103.606 13.9032C103.31 9.81582 101.236 7.92024 97.1489 7.80177C94.661 7.74253 92.2322 7.86101 89.7443 7.80177C87.9079 7.74253 86.7824 8.09795 86.8417 10.349C86.8417 12.4815 87.9672 12.7184 89.6258 12.7184C91.8176 12.6592 93.9501 12.7184 96.1419 12.7184C97.2081 12.7184 98.5706 12.6 98.6298 14.1401C98.6298 15.7988 97.2081 15.7988 96.0234 15.7988C94.5425 15.858 93.0616 15.7988 91.5806 15.7988C87.8487 15.858 85.9531 18.0498 85.9531 22.1371C85.9531 26.2245 87.671 28.0608 91.4622 28.0608C92.8246 28.0608 94.2463 28.0608 95.6087 28.0608C103.665 28.0608 103.665 28.0608 103.606 20.0638C103.665 17.9905 103.783 15.9172 103.606 13.9032ZM94.8979 23.4996C93.3577 23.0257 90.8106 24.2696 90.8106 21.9002C90.8106 19.4714 93.3577 20.4785 94.7794 20.4785C96.2011 20.4785 98.6891 19.4122 98.6891 21.9002C98.7483 24.6251 96.0826 22.848 94.8979 23.4996Z" fill="#2E82FE"/>
</g>
<defs>
<clipPath id="clip0_3055_19127">
<rect width="177" height="35.3645" fill="white" transform="translate(0 0.515625)"/>
</clipPath>
</defs>
</svg>
