<svg width="85" height="17" viewBox="0 0 85 17" fill="none" xmlns="http://www.w3.org/2000/svg">
<path d="M7.27246 16.0381C10.8389 16.0381 13.4707 13.8359 13.8682 10.6562L13.8896 10.5488H11.1719L11.1396 10.6562C10.6348 12.5684 9.24902 13.6318 7.27246 13.6318C4.57617 13.6318 2.83594 11.4619 2.83594 8.01367V8.00293C2.83594 4.56543 4.56543 2.40625 7.27246 2.40625C9.29199 2.40625 10.6562 3.5127 11.1074 5.28516L11.1611 5.48926H13.8789L13.8682 5.38184C13.46 2.22363 10.8389 0 7.27246 0C2.8252 0 0 3.05078 0 8.00293V8.01367C0 12.9658 2.81445 16.0381 7.27246 16.0381Z" fill="#008CFF"/>
<path d="M21.2046 15.9951C24.5455 15.9951 26.7154 13.7715 26.7154 10.0762V10.0547C26.7154 6.38086 24.5132 4.14648 21.1939 4.14648C17.8853 4.14648 15.6939 6.40234 15.6939 10.0547V10.0762C15.6939 13.7607 17.8531 15.9951 21.2046 15.9951ZM21.2154 13.8359C19.5074 13.8359 18.4224 12.4717 18.4224 10.0762V10.0547C18.4224 7.69141 19.5289 6.31641 21.1939 6.31641C22.8912 6.31641 23.9869 7.68066 23.9869 10.0547V10.0762C23.9869 12.4609 22.9019 13.8359 21.2154 13.8359Z" fill="#008CFF"/>
<path d="M28.8741 15.7695H31.5489V9.16309C31.5489 7.51953 32.5265 6.40234 34.0626 6.40234C35.588 6.40234 36.34 7.31543 36.34 8.9375V15.7695H39.0148V8.40039C39.0148 5.75781 37.5861 4.14648 35.0831 4.14648C33.3536 4.14648 32.1935 4.94141 31.6027 6.16602H31.5489V4.38281H28.8741V15.7695Z" fill="#008CFF"/>
<path d="M41.6032 15.7695H44.278V9.16309C44.278 7.51953 45.2555 6.40234 46.7917 6.40234C48.3171 6.40234 49.069 7.31543 49.069 8.9375V15.7695H51.7438V8.40039C51.7438 5.75781 50.3151 4.14648 47.8122 4.14648C46.0827 4.14648 44.9225 4.94141 44.3317 6.16602H44.278V4.38281H41.6032V15.7695Z" fill="#008CFF"/>
<path d="M59.3381 15.9951C62.3137 15.9951 63.9895 14.2334 64.344 12.4824L64.3762 12.3643H61.8733L61.8518 12.4395C61.594 13.2021 60.7239 13.9111 59.3918 13.9111C57.6516 13.9111 56.5559 12.7295 56.5129 10.7314H64.4836V9.87207C64.4836 6.43457 62.4641 4.14648 59.2092 4.14648C55.9543 4.14648 53.8596 6.50977 53.8596 10.0977V10.1084C53.8596 13.7285 55.9221 15.9951 59.3381 15.9951ZM59.2414 6.24121C60.6594 6.24121 61.6907 7.14355 61.884 8.94824H56.5452C56.76 7.19727 57.8235 6.24121 59.2414 6.24121Z" fill="#008CFF"/>
<path d="M71.6805 15.9951C74.5594 15.9951 76.4822 14.1904 76.6863 11.8164L76.6971 11.7412H74.1727L74.1512 11.8379C73.9041 13.0303 73.0447 13.8359 71.6912 13.8359C70.0047 13.8359 68.909 12.4609 68.909 10.0869V10.0762C68.909 7.74512 69.9939 6.31641 71.6805 6.31641C73.0984 6.31641 73.9148 7.20801 74.1404 8.31445L74.1619 8.41113H76.6863L76.6756 8.3252C76.5145 6.04785 74.6453 4.14648 71.6482 4.14648C68.3289 4.14648 66.1805 6.42383 66.1805 10.0547V10.0654C66.1805 13.7178 68.2967 15.9951 71.6805 15.9951Z" fill="#008CFF"/>
<path d="M82.9701 15.9951C83.5072 15.9951 83.9798 15.9414 84.2914 15.8984V13.8896C84.1087 13.9004 83.9046 13.9326 83.6468 13.9326C82.6693 13.9326 82.1752 13.5781 82.1752 12.4609V6.44531H84.2914V4.38281H82.1752V1.49316H79.4574V4.38281H77.8461V6.44531H79.4574V12.6865C79.4574 15.0283 80.5853 15.9951 82.9701 15.9951Z" fill="#008CFF"/>
</svg>
