<svg width="177" height="31" viewBox="0 0 177 31" fill="none" xmlns="http://www.w3.org/2000/svg">
<path d="M0 16.0786C0 13.8755 0.392947 11.8979 1.17884 10.1458C1.97762 8.38072 3.05339 6.88623 4.40616 5.6623C5.75893 4.42548 7.33071 3.47855 9.12152 2.82149C10.9123 2.16443 12.8126 1.8359 14.8225 1.8359C16.2268 1.8359 17.6568 1.97118 19.1127 2.24173C20.5685 2.51228 22.0179 3.00186 23.4609 3.71045L22.2627 9.89453C21.1289 9.27612 20.0081 8.81232 18.9001 8.50311C17.7921 8.19391 16.7743 8.03931 15.8467 8.03931C14.7258 8.03931 13.7209 8.22612 12.832 8.59974C11.943 8.96048 11.1893 9.4887 10.5709 10.1844C9.95251 10.8801 9.47582 11.724 9.14085 12.716C8.81876 13.708 8.65771 14.8289 8.65771 16.0786C8.65771 17.3283 8.81876 18.4492 9.14085 19.4412C9.47582 20.4332 9.95251 21.2771 10.5709 21.9728C11.1893 22.6685 11.943 23.2032 12.832 23.5768C13.7209 23.9376 14.7258 24.1179 15.8467 24.1179C16.7743 24.1179 17.7921 23.9633 18.9001 23.6541C20.0081 23.3449 21.1289 22.8811 22.2627 22.2627L23.4609 28.4468C22.0179 29.1425 20.5685 29.6127 19.1127 29.8575C17.6568 30.1152 16.2268 30.244 14.8225 30.244C12.8126 30.244 10.9123 29.9219 9.12152 29.2778C7.33071 28.6207 5.75893 27.6866 4.40616 26.4756C3.05339 25.2517 1.97762 23.7636 1.17884 22.0115C0.392947 20.2593 0 18.2817 0 16.0786Z" fill="#0066FF"/>
<path d="M28.8333 0H37.1818V11.6918C37.5425 11.1893 38.0063 10.732 38.5732 10.3197C39.1401 9.90742 39.7649 9.55312 40.4478 9.2568C41.1306 8.94759 41.8521 8.71569 42.6122 8.56109C43.3723 8.3936 44.1324 8.30986 44.8926 8.30986C45.8331 8.30986 46.7156 8.46446 47.5401 8.77367C48.3776 9.06999 49.1055 9.55312 49.7239 10.2231C50.3423 10.893 50.8254 11.7562 51.1733 12.8126C51.534 13.8562 51.7144 15.1188 51.7144 16.6004V29.6836H43.3659V18.6682C43.3659 17.7019 43.2821 16.8967 43.1146 16.2525C42.96 15.6084 42.7539 15.093 42.4962 14.7065C42.2386 14.3071 41.9422 14.0301 41.6073 13.8755C41.2852 13.708 40.9567 13.6243 40.6217 13.6243C40.2352 13.6243 39.8487 13.7016 39.4622 13.8562C39.0885 13.9979 38.7407 14.2041 38.4186 14.4746C38.1094 14.7452 37.8453 15.0673 37.6263 15.4409C37.4073 15.8145 37.2591 16.2268 37.1818 16.6777V29.6836H28.8333V0Z" fill="#0066FF"/>
<path d="M62.5752 30.244C61.7506 30.244 60.9583 30.1281 60.1982 29.8962C59.4509 29.6643 58.7874 29.31 58.2077 28.8333C57.6279 28.3566 57.1641 27.7575 56.8162 27.036C56.4813 26.3017 56.3138 25.4385 56.3138 24.4464C56.3138 23.4931 56.4684 22.6685 56.7776 21.9728C57.0868 21.2642 57.4991 20.6587 58.0144 20.1562C58.5426 19.6538 59.1546 19.2415 59.8503 18.9194C60.5589 18.5845 61.3061 18.3268 62.092 18.1464C62.8779 17.9532 63.6832 17.8243 64.5077 17.7599C65.3451 17.6826 66.1568 17.644 66.9427 17.644C67.4838 17.644 68.0056 17.6568 68.508 17.6826C69.0105 17.7084 69.4807 17.7406 69.9188 17.7792C69.893 16.9676 69.7384 16.2976 69.455 15.7694C69.1715 15.2283 68.7979 14.8031 68.3341 14.4939C67.8703 14.1719 67.3292 13.9464 66.7108 13.8176C66.0924 13.6887 65.4418 13.6243 64.7589 13.6243C64.1276 13.6243 63.477 13.6694 62.8071 13.7596C62.15 13.8369 61.5058 13.94 60.8745 14.0688C60.2433 14.1847 59.6377 14.3136 59.058 14.4553C58.4911 14.597 57.9886 14.7258 57.5506 14.8418V9.43072C58.1819 9.28901 58.8583 9.15373 59.5798 9.02489C60.3141 8.88318 61.0742 8.76078 61.8601 8.65772C62.646 8.55465 63.4448 8.4709 64.2565 8.40649C65.081 8.34207 65.8927 8.30986 66.6915 8.30986C67.6835 8.30986 68.6562 8.37428 69.6096 8.50311C70.5758 8.61906 71.4841 8.81876 72.3344 9.1022C73.1976 9.38563 73.99 9.7657 74.7114 10.2424C75.4458 10.7191 76.0706 11.3117 76.586 12.0203C77.1142 12.716 77.5265 13.5406 77.8228 14.4939C78.1191 15.4473 78.2673 16.5489 78.2673 17.7986V29.6836H70.3053V26.2244C69.9961 26.8557 69.5645 27.4225 69.0105 27.925C68.4565 28.4146 67.8316 28.8333 67.1359 29.1811C66.4402 29.529 65.6994 29.7931 64.9135 29.9735C64.1276 30.1538 63.3482 30.244 62.5752 30.244ZM65.8411 25.7026C66.2019 25.7026 66.6142 25.606 67.078 25.4127C67.5546 25.2066 67.9991 24.8974 68.4114 24.4851C68.8366 24.0728 69.1909 23.551 69.4743 22.9198C69.7706 22.2885 69.9188 21.5348 69.9188 20.6587H69.281C68.6626 20.6587 68.0249 20.7231 67.3678 20.852C66.7237 20.9808 66.131 21.174 65.5899 21.4317C65.0488 21.6894 64.6043 22.005 64.2565 22.3786C63.9086 22.7523 63.7347 23.1839 63.7347 23.6734C63.7347 24.0599 63.7991 24.382 63.9279 24.6397C64.0568 24.8974 64.2178 25.1099 64.4111 25.2774C64.6172 25.432 64.8427 25.5415 65.0875 25.606C65.3451 25.6704 65.5964 25.7026 65.8411 25.7026Z" fill="#0066FF"/>
<path d="M81.4505 9.89453H83.5878V6.25334L90.8701 3.91823V9.89453H94.63V15.0397H90.8701V22.0846C90.8701 22.2693 90.8569 22.454 90.8305 22.6387C90.8305 22.8234 90.8305 23.0213 90.8305 23.2324C90.8305 23.7601 90.8965 24.235 91.0284 24.6572C91.1867 25.053 91.5561 25.2508 92.1366 25.2508C92.4005 25.2508 92.7831 25.1849 93.2844 25.053C93.8121 24.8946 94.2606 24.7363 94.63 24.578V29.644C94.3398 29.7759 93.9704 29.8815 93.5219 29.9606C93.0733 30.0662 92.6116 30.1453 92.1366 30.1981C91.6617 30.2509 91.2131 30.2905 90.791 30.3168C90.3952 30.3696 90.0786 30.396 89.8411 30.396C88.3635 30.396 87.2026 30.1981 86.3582 29.8023C85.5403 29.4065 84.9334 28.8525 84.5376 28.14C84.1418 27.4276 83.8912 26.5569 83.7856 25.5279C83.6801 24.4989 83.6141 23.3511 83.5878 22.0846V15.0397H81.4505V9.89453Z" fill="#0066FF"/>
<path d="M135.799 29.6836H125.479L124.203 23.8667H117.42L116.203 29.6836H109.226L116.183 2.35768H128.281L135.799 29.6836ZM120.899 6.60924L118.251 19.3446H123.778L121.498 6.60924H120.899Z" fill="#0066FF"/>
<path d="M139.296 2.35768H149.848C151.677 2.35768 153.281 2.47363 154.66 2.70554C156.051 2.92456 157.256 3.2402 158.274 3.65247C159.292 4.06475 160.136 4.56076 160.805 5.14052C161.488 5.72028 162.029 6.35801 162.429 7.05372C162.841 7.73654 163.131 8.4709 163.298 9.2568C163.466 10.0427 163.55 10.8544 163.55 11.6918C163.55 12.4004 163.466 13.109 163.298 13.8176C163.144 14.5261 162.873 15.2025 162.487 15.8467C162.113 16.4909 161.611 17.09 160.979 17.644C160.348 18.1979 159.569 18.6811 158.641 19.0934C157.726 19.5056 156.638 19.8277 155.375 20.0596C154.125 20.2915 152.682 20.4075 151.046 20.4075C150.814 20.4075 150.524 20.4075 150.177 20.4075C149.829 20.3946 149.487 20.3753 149.152 20.3495L147.954 20.2722V29.6836H139.296V2.35768ZM147.954 16.0786H149.945C150.872 16.0786 151.652 15.9691 152.283 15.7501C152.914 15.5182 153.423 15.209 153.81 14.8225C154.196 14.436 154.473 13.9786 154.641 13.4504C154.808 12.9222 154.892 12.3553 154.892 11.7498C154.892 10.7835 154.77 9.98472 154.525 9.35342C154.28 8.72213 153.932 8.21968 153.481 7.84605C153.043 7.45955 152.521 7.189 151.916 7.03439C151.31 6.87979 150.653 6.80249 149.945 6.80249H147.954V16.0786Z" fill="#0066FF"/>
<path d="M168.342 2.35768H177V29.6836H168.342V2.35768Z" fill="#0066FF"/>
</svg>
