<svg width="177" height="54" viewBox="0 0 177 54" fill="none" xmlns="http://www.w3.org/2000/svg">
<g opacity="0.8" clip-path="url(#clip0_3057_1290)">
<mask id="mask0_3057_1290" style="mask-type:alpha" maskUnits="userSpaceOnUse" x="0" y="0" width="176" height="54">
<path d="M26.4408 0.730469C41.0713 0.730469 52.8815 12.5525 52.8815 27.1978C52.8815 41.8429 41.0713 53.6651 26.4408 53.6651C11.8102 53.6651 0 41.8429 0 27.1978C0 12.5525 11.8102 0.730469 26.4408 0.730469ZM26.4408 7.78842C15.6882 7.78842 7.05087 16.4344 7.05087 27.1978C7.05087 37.9612 15.6882 46.607 26.4408 46.607C37.1933 46.607 45.8306 37.9612 45.8306 27.1978C45.8306 16.4344 37.1933 7.78842 26.4408 7.78842ZM71.3901 11.1409C71.7426 10.9645 72.0951 11.3174 72.0951 11.4938V19.0811H86.1969C86.373 19.0811 86.7257 19.4341 86.7257 19.6104L87.7832 24.0217L88.8409 28.433L89.0171 28.9623L89.1935 28.433L91.8375 19.6104C91.8375 19.2576 92.19 19.0811 92.3664 19.0811H99.4173C99.5934 19.0811 99.9459 19.4341 99.9459 19.6104L102.766 28.9623L102.943 28.433L105.234 19.6104C105.234 19.2576 105.587 19.0811 105.763 19.0811H123.743C123.919 19.0811 124.095 19.4341 124.095 19.6104V43.0781C124.095 43.431 123.743 43.6075 123.566 43.6075H114.577C114.224 43.6075 114.048 43.2546 114.048 43.0781L114.047 20.8456L107.349 43.0781C107.349 43.387 107.08 43.5607 106.894 43.5992L106.821 43.6075H99.4173C99.2409 43.6075 98.8884 43.2546 98.8884 43.0781L97.4782 38.314L95.8918 33.1971L92.7189 43.0781C92.7189 43.431 92.3664 43.6075 92.19 43.6075H84.7866C84.6103 43.6075 84.2578 43.2546 84.2578 43.0781L77.5596 20.8456V26.4919C77.5596 26.8449 77.2069 27.0213 77.0307 27.0213H71.9187V33.0206C71.9187 34.7851 72.8001 35.4908 74.3867 35.4908C75.0917 35.4908 75.973 35.3144 76.8544 34.9614C77.0307 34.7851 77.3832 34.9614 77.3832 35.3144V42.3723C75.7969 43.2546 73.5053 43.784 71.0375 43.784C65.2205 43.784 62.0476 41.1373 62.0476 35.3144V27.0213H59.756C59.4035 27.0213 59.2273 26.6684 59.2273 26.4919V19.7869C59.2273 19.4341 59.5799 19.2576 59.756 19.2576H62.0476V14.4935C62.0476 14.1406 62.2239 13.9641 62.5765 13.9641L71.3901 11.1409ZM162.346 18.5517C170.102 18.5517 175.743 24.3745 175.743 31.0797C175.743 37.7847 170.102 43.6075 162.17 43.6075C154.414 43.6075 148.773 37.7847 148.773 31.0797C148.773 24.3745 154.414 18.5517 162.346 18.5517ZM135.553 11.1409C135.905 11.1409 136.082 11.3174 136.082 11.4938V42.9016C136.082 43.2546 135.729 43.431 135.553 43.431H126.563C126.21 43.431 126.034 43.0781 126.034 42.9016V11.6703C126.034 11.3174 126.387 11.1409 126.563 11.1409H135.553ZM147.363 19.0811C147.716 19.0811 147.892 19.4341 147.892 19.6104V42.7253C147.892 43.0781 147.539 43.2546 147.363 43.2546H138.373C138.021 43.2546 137.844 42.9016 137.844 42.7253V19.6104C137.844 19.2576 138.197 19.0811 138.373 19.0811H147.363ZM19.9186 28.2565C22.9154 28.2565 25.3831 30.7267 25.3831 33.7264C25.3831 36.726 22.9154 39.1962 19.9186 39.1962C16.922 39.1962 14.4543 36.726 14.4543 33.7264C14.4543 30.7267 16.922 28.2565 19.9186 28.2565ZM32.9629 28.2565C35.9595 28.2565 38.4272 30.7267 38.4272 33.7264C38.4272 36.726 35.9595 39.1962 32.9629 39.1962C29.9661 39.1962 27.4984 36.726 27.4984 33.7264C27.4984 30.7267 29.9661 28.2565 32.9629 28.2565ZM162.346 27.0213C160.055 27.0213 158.468 28.9623 158.468 31.256C158.468 33.5499 160.231 35.4908 162.346 35.4908C164.638 35.4908 166.225 33.5499 166.225 31.256C166.225 28.7858 164.461 26.8449 162.346 27.0213ZM32.9629 15.1993C35.9595 15.1993 38.4272 17.6695 38.4272 20.6691C38.4272 23.6688 35.9595 26.1391 32.9629 26.1391C29.9661 26.1391 27.4984 23.6688 27.4984 20.6691C27.4984 17.6695 29.9661 15.1993 32.9629 15.1993ZM19.9186 15.1993C22.9154 15.1993 25.3831 17.6695 25.3831 20.6691C25.3831 23.6688 22.9154 26.1391 19.9186 26.1391C16.922 26.1391 14.4543 23.6688 14.4543 20.6691C14.4543 17.6695 16.922 15.1993 19.9186 15.1993ZM123.919 11.1409C124.095 11.1409 124.272 11.3174 124.448 11.4938V17.1402C124.448 17.493 124.095 17.6695 123.919 17.6695H114.577C114.224 17.6695 114.048 17.3167 114.048 17.1402V11.6703C114.048 11.3174 114.4 11.1409 114.577 11.1409H123.919ZM147.539 11.1409C147.892 11.1409 148.068 11.3174 148.068 11.4938V17.1402C148.068 17.493 147.716 17.6695 147.539 17.6695H138.197C137.844 17.6695 137.668 17.3167 137.668 17.1402V11.6703C137.668 11.3174 138.021 11.1409 138.197 11.1409H147.539Z" fill="white"/>
</mask>
<g mask="url(#mask0_3057_1290)">
<path d="M26.4408 0.730469C41.0713 0.730469 52.8815 12.5525 52.8815 27.1978C52.8815 41.8429 41.0713 53.6651 26.4408 53.6651C11.8102 53.6651 0 41.8429 0 27.1978C0 12.5525 11.8102 0.730469 26.4408 0.730469ZM26.4408 7.78842C15.6882 7.78842 7.05087 16.4344 7.05087 27.1978C7.05087 37.9612 15.6882 46.607 26.4408 46.607C37.1933 46.607 45.8306 37.9612 45.8306 27.1978C45.8306 16.4344 37.1933 7.78842 26.4408 7.78842ZM71.3901 11.1409C71.7426 10.9645 72.0951 11.3174 72.0951 11.4938V19.0811H86.1969C86.373 19.0811 86.7257 19.4341 86.7257 19.6104L87.7832 24.0217L88.8409 28.433L89.0171 28.9623L89.1935 28.433L91.8375 19.6104C91.8375 19.2576 92.19 19.0811 92.3664 19.0811H99.4173C99.5934 19.0811 99.9459 19.4341 99.9459 19.6104L102.766 28.9623L102.943 28.433L105.234 19.6104C105.234 19.2576 105.587 19.0811 105.763 19.0811H123.743C123.919 19.0811 124.095 19.4341 124.095 19.6104V43.0781C124.095 43.431 123.743 43.6075 123.566 43.6075H114.577C114.224 43.6075 114.048 43.2546 114.048 43.0781L114.047 20.8456L107.349 43.0781C107.349 43.387 107.08 43.5607 106.894 43.5992L106.821 43.6075H99.4173C99.2409 43.6075 98.8884 43.2546 98.8884 43.0781L97.4782 38.314L95.8918 33.1971L92.7189 43.0781C92.7189 43.431 92.3664 43.6075 92.19 43.6075H84.7866C84.6103 43.6075 84.2578 43.2546 84.2578 43.0781L77.5596 20.8456V26.4919C77.5596 26.8449 77.2069 27.0213 77.0307 27.0213H71.9187V33.0206C71.9187 34.7851 72.8001 35.4908 74.3867 35.4908C75.0917 35.4908 75.973 35.3145 76.8544 34.9614C77.0307 34.7851 77.3832 34.9614 77.3832 35.3144V42.3723C75.7969 43.2546 73.5053 43.784 71.0375 43.784C65.2205 43.784 62.0476 41.1373 62.0476 35.3144V27.0213H59.756C59.4035 27.0213 59.2273 26.6684 59.2273 26.4919V19.7869C59.2273 19.4341 59.5799 19.2576 59.756 19.2576H62.0476V14.4935C62.0476 14.1406 62.2239 13.9641 62.5765 13.9641L71.3901 11.1409ZM162.346 18.5517C170.102 18.5517 175.743 24.3745 175.743 31.0797C175.743 37.7847 170.102 43.6075 162.17 43.6075C154.414 43.6075 148.773 37.7847 148.773 31.0797C148.773 24.3745 154.414 18.5517 162.346 18.5517ZM135.553 11.1409C135.905 11.1409 136.082 11.3174 136.082 11.4938V42.9016C136.082 43.2546 135.729 43.431 135.553 43.431H126.563C126.21 43.431 126.034 43.0781 126.034 42.9016V11.6703C126.034 11.3174 126.387 11.1409 126.563 11.1409H135.553ZM147.363 19.0811C147.716 19.0811 147.892 19.4341 147.892 19.6104V42.7253C147.892 43.0781 147.539 43.2546 147.363 43.2546H138.373C138.021 43.2546 137.844 42.9016 137.844 42.7253V19.6104C137.844 19.2576 138.197 19.0811 138.373 19.0811H147.363ZM19.9186 28.2565C22.9154 28.2565 25.3831 30.7267 25.3831 33.7264C25.3831 36.726 22.9154 39.1962 19.9186 39.1962C16.922 39.1962 14.4543 36.726 14.4543 33.7264C14.4543 30.7267 16.922 28.2565 19.9186 28.2565ZM32.9629 28.2565C35.9595 28.2565 38.4272 30.7267 38.4272 33.7264C38.4272 36.726 35.9595 39.1962 32.9629 39.1962C29.9661 39.1962 27.4984 36.726 27.4984 33.7264C27.4984 30.7267 29.9661 28.2565 32.9629 28.2565ZM162.346 27.0213C160.055 27.0213 158.468 28.9623 158.468 31.256C158.468 33.5499 160.231 35.4908 162.346 35.4908C164.638 35.4908 166.225 33.5499 166.225 31.256C166.225 28.7858 164.461 26.8449 162.346 27.0213ZM32.9629 15.1993C35.9595 15.1993 38.4272 17.6695 38.4272 20.6691C38.4272 23.6688 35.9595 26.1391 32.9629 26.1391C29.9661 26.1391 27.4984 23.6688 27.4984 20.6691C27.4984 17.6695 29.9661 15.1993 32.9629 15.1993ZM19.9186 15.1993C22.9154 15.1993 25.3831 17.6695 25.3831 20.6691C25.3831 23.6688 22.9154 26.1391 19.9186 26.1391C16.922 26.1391 14.4543 23.6688 14.4543 20.6691C14.4543 17.6695 16.922 15.1993 19.9186 15.1993ZM123.919 11.1409C124.095 11.1409 124.272 11.3174 124.448 11.4938V17.1402C124.448 17.493 124.095 17.6695 123.919 17.6695H114.577C114.224 17.6695 114.048 17.3167 114.048 17.1402V11.6703C114.048 11.3174 114.4 11.1409 114.577 11.1409H123.919ZM147.539 11.1409C147.892 11.1409 148.068 11.3174 148.068 11.4938V17.1402C148.068 17.493 147.716 17.6695 147.539 17.6695H138.197C137.844 17.6695 137.668 17.3167 137.668 17.1402V11.6703C137.668 11.3174 138.021 11.1409 138.197 11.1409H147.539Z" fill="#0066FF"/>
</g>
</g>
<defs>
<clipPath id="clip0_3057_1290">
<rect width="177" height="52.9346" fill="white" transform="translate(0 0.730469)"/>
</clipPath>
</defs>
</svg>
